<?xml version="1.0" encoding="utf-8"?>
<!-- Generator: Adobe Illustrator 17.0.0, SVG Export Plug-In . SVG Version: 6.00 Build 0)  -->
<!DOCTYPE svg PUBLIC "-//W3C//DTD SVG 1.1//EN" "http://www.w3.org/Graphics/SVG/1.1/DTD/svg11.dtd">
<svg version="1.1" xmlns="http://www.w3.org/2000/svg" xmlns:xlink="http://www.w3.org/1999/xlink" x="0px" y="0px" width="1042px"
	 height="1042px" viewBox="0 0 1042 1042" enable-background="new 0 0 1042 1042" xml:space="preserve">
<g id="Layer_2">
	<rect x="0.509" y="0.509" fill="#CDCCCC" width="1042" height="1042"/>
</g>
<g id="Layer_1">
	<g>
		<path fill="#CDCCCC" d="M0.509,1042.509c0-347.333,0-694.667,0-1042c347.333,0,694.667,0,1042,0c0,347.333,0,694.667,0,1042
			C695.176,1042.509,347.842,1042.509,0.509,1042.509z M466.251,506.641c1.127-0.625,1.879-1.009,2.598-1.447
			c4.197-2.552,8.501-4.947,12.557-7.707c15.667-10.658,25.706-25.353,30.439-43.618c4.938-19.053,4.947-38.238,0.605-57.395
			c-3.669-16.189-10.985-30.543-22.364-42.724c-10.136-10.85-22.358-18.597-36.093-24.04c-17.699-7.015-36.229-9.808-55.122-10.658
			c-3.725-0.168-7.459-0.156-11.189-0.157c-62.571-0.009-125.142-0.006-187.712-0.006c-1.157,0-2.314,0-3.409,0
			c-0.568,3.823-0.392,403.303,0.176,405.242c1.13,0,2.308,0,3.486,0c59.434,0,118.868-0.006,178.302,0.006
			c9.159,0.002,18.301-0.244,27.432-1.06c11.491-1.028,22.896-2.589,34.126-5.243c23.587-5.575,43.457-17.43,59.168-35.904
			c16.239-19.096,26.036-41.053,28.479-66.161c1.449-14.89,0.811-29.635-2.729-44.186c-3.838-15.773-10.961-29.845-22.227-41.671
			c-9.526-9.999-21.016-17.018-33.767-22.101C468.234,507.5,467.474,507.16,466.251,506.641z M847.566,587.832
			c0-1.232,0.01-1.982-0.002-2.732c-0.169-10.934-0.176-21.874-0.563-32.8c-0.321-9.058-1.185-18.081-2.838-27.024
			c-3.875-20.964-11.648-40.262-23.995-57.711c-14.097-19.922-32.28-34.543-55.133-43.321c-15.882-6.101-32.34-9.443-49.267-10.419
			c-19.403-1.12-38.683-0.056-57.422,5.491c-42.22,12.498-71.843,38.925-87.592,80.322c-7.216,18.966-10.138,38.794-10.95,58.956
			c-0.636,15.779-0.035,31.519,2.381,47.161c1.855,12.011,4.743,23.743,9.251,35.044c6.739,16.892,16.517,31.696,30.54,43.433
			c27.149,22.722,58.484,35.079,93.805,37.07c15.439,0.87,30.819-0.017,46.081-2.819c32.067-5.887,58.822-20.838,79.633-46.128
			c6.928-8.419,13.024-17.34,17.185-27.48c2.354-5.735,4.057-11.642,4.786-18.183c-1.131,0-2.122,0-3.114,0
			c-23.486,0-46.971,0.059-70.456-0.076c-2.907-0.017-4.459,0.79-5.906,3.366c-8.136,14.485-20.239,24.021-36.521,27.726
			c-16.22,3.692-32.389,3.079-48.098-2.513c-18.089-6.439-30.847-18.606-37.572-36.785c-3.05-8.243-4.638-16.798-5.31-25.537
			c-0.122-1.582-0.156-3.17-0.245-5.043C706.728,587.832,776.971,587.832,847.566,587.832z M621.4,335.845
			c-0.48,4.263-0.304,38.432,0.195,40.338c54.201,0,108.418,0,162.762,0c0-13.509,0-26.853,0-40.338
			C729.989,335.845,675.768,335.845,621.4,335.845z"/>
		<path fill="#FFFFFF" d="M466.251,506.641c1.222,0.519,1.983,0.859,2.756,1.168c12.751,5.083,24.242,12.102,33.767,22.101
			c11.266,11.826,18.389,25.898,22.227,41.671c3.54,14.551,4.178,29.297,2.729,44.186c-2.443,25.108-12.24,47.065-28.479,66.161
			c-15.711,18.475-35.581,30.329-59.168,35.904c-11.229,2.654-22.635,4.216-34.126,5.243c-9.131,0.817-18.273,1.062-27.432,1.06
			c-59.434-0.011-118.868-0.006-178.302-0.006c-1.178,0-2.357,0-3.486,0c-0.568-1.939-0.744-401.419-0.176-405.242
			c1.095,0,2.252,0,3.409,0c62.571,0,125.141-0.003,187.712,0.006c3.73,0,7.464-0.011,11.189,0.157
			c18.893,0.85,37.422,3.643,55.122,10.658c13.734,5.444,25.957,13.191,36.093,24.04c11.379,12.181,18.694,26.535,22.364,42.724
			c4.342,19.157,4.333,38.342-0.605,57.395c-4.734,18.265-14.772,32.96-30.439,43.618c-4.056,2.759-8.36,5.155-12.557,7.707
			C468.13,505.631,467.379,506.015,466.251,506.641z M289.984,653.76c1.229,0,2.229,0,3.23,0c25.007,0,50.014,0.029,75.022-0.02
			c6.269-0.012,12.541-0.177,18.805-0.446c6.703-0.288,13.321-1.306,19.788-3.115c15.447-4.32,26.585-13.581,32.121-28.85
			c4.337-11.961,4.993-24.356,2.995-36.846c-1.281-8.009-4.513-15.241-10.049-21.311c-6.001-6.58-13.526-10.648-21.95-13.173
			c-9.654-2.894-19.595-4.008-29.615-4.052c-29.415-0.128-58.83-0.067-88.245-0.074c-0.657,0-1.314,0.076-2.101,0.125
			C289.984,581.883,289.984,617.622,289.984,653.76z M290.002,478.666c1.192,0,2.191,0,3.191,0c25.682,0,51.363,0.06,77.045-0.041
			c6.599-0.026,13.221-0.293,19.787-0.928c8.913-0.861,17.417-3.35,25.43-7.483c9.334-4.814,15.051-12.376,17.55-22.475
			c1.938-7.833,2.109-15.763,1.039-23.723c-2.045-15.215-11.08-25.933-25.641-29.769c-13.378-3.525-27.007-4.827-40.759-4.901
			c-25.003-0.134-50.007-0.045-75.01-0.042c-0.827,0-1.654,0.07-2.631,0.114C290.002,419.135,290.002,448.678,290.002,478.666z"/>
		<path fill="#FFFFFF" d="M847.566,587.832c-70.595,0-140.838,0-211.322,0c0.088,1.873,0.123,3.461,0.245,5.043
			c0.672,8.739,2.26,17.293,5.31,25.537c6.726,18.179,19.483,30.346,37.572,36.785c15.709,5.592,31.878,6.204,48.098,2.513
			c16.282-3.706,28.385-13.241,36.521-27.726c1.447-2.576,2.998-3.383,5.906-3.366c23.485,0.135,46.971,0.076,70.456,0.076
			c0.992,0,1.983,0,3.114,0c-0.729,6.541-2.433,12.447-4.786,18.183c-4.161,10.14-10.257,19.061-17.185,27.48
			c-20.811,25.29-47.565,40.241-79.633,46.128c-15.262,2.802-30.642,3.69-46.081,2.819c-35.321-1.991-66.655-14.349-93.805-37.07
			c-14.023-11.736-23.801-26.541-30.54-43.433c-4.509-11.302-7.397-23.033-9.251-35.044c-2.415-15.642-3.016-31.382-2.381-47.161
			c0.812-20.162,3.734-39.989,10.95-58.956c15.75-41.397,45.372-67.824,87.592-80.322c18.738-5.547,38.019-6.611,57.422-5.491
			c16.927,0.977,33.385,4.319,49.267,10.419c22.853,8.778,41.036,23.399,55.133,43.321c12.347,17.449,20.12,36.747,23.995,57.711
			c1.653,8.943,2.517,17.966,2.838,27.024c0.387,10.926,0.394,21.866,0.563,32.8C847.576,585.849,847.566,586.6,847.566,587.832z
			 M638.012,537.498c43.674,0,87.033,0,130.524,0c-0.104-1.535-0.107-2.89-0.303-4.218c-0.444-3.015-0.852-6.045-1.504-9.019
			c-4.898-22.334-18.245-37.238-39.859-44.517c-13.661-4.601-27.65-4.642-41.661-1.635c-9.64,2.069-18.248,6.28-25.418,13.136
			C646.681,503.782,640.77,519.729,638.012,537.498z"/>
		<path fill="#FFFFFF" d="M621.4,335.845c54.367,0,108.589,0,162.957,0c0,13.485,0,26.829,0,40.338c-54.344,0-108.561,0-162.762,0
			C621.096,374.277,620.92,340.108,621.4,335.845z"/>
		<path fill="#CDCCCC" d="M289.984,653.76c0-36.138,0-71.877,0-107.762c0.787-0.049,1.444-0.125,2.101-0.125
			c29.415,0.007,58.831-0.053,88.245,0.074c10.02,0.044,19.96,1.158,29.615,4.052c8.425,2.525,15.95,6.593,21.95,13.173
			c5.536,6.07,8.768,13.302,10.049,21.311c1.998,12.49,1.342,24.885-2.995,36.846c-5.536,15.269-16.674,24.53-32.121,28.85
			c-6.467,1.808-13.085,2.827-19.788,3.115c-6.263,0.269-12.536,0.434-18.805,0.446c-25.007,0.049-50.014,0.02-75.022,0.02
			C292.213,653.76,291.213,653.76,289.984,653.76z"/>
		<path fill="#CDCCCC" d="M290.002,478.666c0-29.988,0-59.531,0-89.248c0.977-0.044,1.804-0.114,2.631-0.114
			c25.004-0.003,50.008-0.092,75.01,0.042c13.752,0.074,27.381,1.376,40.759,4.901c14.561,3.836,23.596,14.555,25.641,29.769
			c1.07,7.96,0.899,15.889-1.039,23.723c-2.499,10.099-8.216,17.661-17.55,22.475c-8.013,4.132-16.517,6.622-25.43,7.483
			c-6.565,0.634-13.188,0.902-19.787,0.928c-25.681,0.101-51.363,0.041-77.045,0.041
			C292.193,478.666,291.194,478.666,290.002,478.666z"/>
		<path fill="#CDCCCC" d="M638.012,537.498c2.758-17.769,8.669-33.716,21.779-46.252c7.17-6.856,15.778-11.067,25.418-13.136
			c14.012-3.007,28.001-2.966,41.661,1.635c21.614,7.28,34.961,22.184,39.859,44.517c0.652,2.974,1.059,6.004,1.504,9.019
			c0.195,1.327,0.199,2.683,0.303,4.218C725.045,537.498,681.686,537.498,638.012,537.498z"/>
	</g>
</g>
</svg>
