<?xml version="1.0" encoding="utf-8"?>
<!-- Generator: Adobe Illustrator 17.0.0, SVG Export Plug-In . SVG Version: 6.00 Build 0)  -->
<!DOCTYPE svg PUBLIC "-//W3C//DTD SVG 1.1//EN" "http://www.w3.org/Graphics/SVG/1.1/DTD/svg11.dtd">
<svg version="1.1" xmlns="http://www.w3.org/2000/svg" xmlns:xlink="http://www.w3.org/1999/xlink" x="0px" y="0px" width="1042px"
	 height="1042px" viewBox="0 0 1042 1042" enable-background="new 0 0 1042 1042" xml:space="preserve">
<g id="Layer_2_1_">
	<rect width="1042" height="1042"/>
</g>
<g id="Layer_1">
	<g>
		<g id="Layer_2">
			<rect width="1048.636" height="1042"/>
		</g>
		<g id="Layer_1_1_">
			<g>
				<path fill="#FEFEFE" d="M784.198,759.481c-19.939,23.667-44.413,40.47-73.959,50.146c-22.054,7.222-44.687,10.069-67.677,10.827
					c-79.825,2.632-159.655,2.68-239.496,0.498c-36.874-1.008-72.43-7.931-104.588-26.248c-17.043-9.708-31.012-23.744-42.918-39.97
					c-17.287-23.56-27.275-50.303-31.54-78.217c-4.026-26.355-4.237-53.495-4.026-80.378c0.027-3.421-0.203-6.844-0.314-10.278
					c0.263-52.969,0.212-105.93,0.918-158.88c0.368-27.627,0.723-55.39,7.992-82.374c18.053-67.016,62.035-106.288,129.473-119.813
					c30.387-6.094,61.35-5.525,92.142-5.766c63.756-0.5,127.524-1.296,191.263,1.267c26.943,1.083,53.586,4.034,78.788,14.411
					c55.877,23.007,86.905,65.741,97.728,124.202c4.818,26.023,4.718,52.429,5.222,78.753c1.251,65.335,1.17,130.672-0.758,195.996
					c-0.513,17.375-1.736,34.717-5.143,51.825c-5.274,26.487-15.46,50.809-31.831,72.402c-0.248,0.144-0.426,0.361-0.525,0.644
					C784.569,758.74,784.318,759.059,784.198,759.481z M765.792,647.841c2.95-3.26,2.417-7.33,2.58-11.224
					c2.262-54.005,1.986-108.047,1.288-162.062c-0.481-37.223,1.228-74.568-6.537-111.539c-3.611-17.193-9.38-32.813-20.008-46.55
					c-21.431-27.7-51.463-38.282-84.88-41.075c-39.957-3.34-80.044-2.98-120.102-2.937c-50.068,0.054-100.171-0.966-150.161,2.684
					c-67.245,4.909-104.572,40.964-111.079,107.886c-4.393,45.177-3.085,90.552-2.786,135.864
					c-0.062,14.226-0.277,28.454-0.155,42.679c0.315,36.575-0.813,73.25,4.494,109.573c2.695,18.447,8.695,35.863,20.317,51.071
					c21.804,28.531,52.003,39.968,86.305,42.803c38.892,3.215,77.908,2.978,116.897,2.97c49.788-0.01,99.595,0.922,149.335-2.248
					c28.802-1.836,56.057-8.392,78.547-27.809C757.34,714.193,764.018,681.946,765.792,647.841z"/>
				<path fill="#FEFEFE" d="M663.742,583.2c-41.142,86.645-143.156,117.781-223.624,68.9
					c-22.505-13.671-38.844-32.321-52.596-54.185c-18.855-29.976-22.314-62.896-20.143-97.094c2.099-8.227,2.794-16.652,5.561-24.9
					c7.184-21.417,17.789-40.533,32.394-57.75c47.009-55.416,127.732-65.787,184.34-36.891c31.639,16.15,55.92,39.563,71.486,71.779
					c14.891,30.82,19.497,67.213,11.596,101.351C670.462,564.324,666.84,573.637,663.742,583.2z M422.318,504.241
					c-2.013,10.379-2.021,20.766-0.123,31.16c1.422,16.065,7.567,30.608,16.898,43.264c38.695,52.483,113.682,57.392,156.741,9.026
					c15.136-17.002,24.988-35.473,24.617-58.621c2.523-5.414,2.097-11.237,1.691-16.847c-1.995-27.539-14.366-49.356-34.999-67.819
					c-18.729-16.759-40.193-25.035-64.49-24.793c-44.72,0.445-76.01,22.483-94.761,62.79
					C424.523,489.295,425.346,497.26,422.318,504.241z"/>
				<path fill="#FEFEFE" d="M682.879,324.194c20.813,0.004,36.071,15.107,35.755,35.66c-0.349,22.661-17.851,36.57-36.663,36.435
					c-17.239-0.124-34.96-14.101-35.379-36.983C646.281,342.251,661.689,322.097,682.879,324.194z"/>
			</g>
		</g>
	</g>
</g>
</svg>
