<?xml version="1.0" encoding="utf-8"?>
<!-- Generator: Adobe Illustrator 17.0.0, SVG Export Plug-In . SVG Version: 6.00 Build 0)  -->
<!DOCTYPE svg PUBLIC "-//W3C//DTD SVG 1.1//EN" "http://www.w3.org/Graphics/SVG/1.1/DTD/svg11.dtd">
<svg version="1.1" id="Layer_1" xmlns="http://www.w3.org/2000/svg" xmlns:xlink="http://www.w3.org/1999/xlink" x="0px" y="0px"
	 width="500px" height="70px" viewBox="0 0 500 70" enableBackground="new 0 0 500 70" xml:space="preserve">
<g>
	<path fill="#FFFFFF" d="M293.657,69.025c0-13.674-1.352-27.066,0.284-40.082c3.312-26.353,34.92-38.112,56.632-21.372
		c4.761,3.671,7.79,3.444,12.224,0.494c9.824-6.536,20.572-9.879,32.411-7.055c14.413,3.438,24.868,15.217,25.859,30.385
		c0.801,12.264,0.162,24.623,0.162,36.892c-7.974,0.791-13.088-2.379-14.064-9.625c-0.944-7.013-0.846-14.18-0.993-21.283
		c-0.296-14.284-7.998-22.91-20.628-22.895c-12.543,0.015-20.796,8.933-20.937,22.828c-0.106,10.414-0.021,20.83-0.021,31.199
		c-8.975,0.523-13.789-3.003-14.54-11.138c-0.696-7.542-0.288-15.181-0.849-22.742c-0.962-12.987-9.525-20.68-21.909-20.143
		c-10.89,0.473-18.889,9.184-19.459,21.523c-0.317,6.873,0.055,13.783-0.4,20.642C306.916,64.394,302.738,68.134,293.657,69.025z"/>
	<path fill="#FFFFFF" d="M499.94,68.923c-13.569,0-26.105,0.318-38.619-0.075c-18.451-0.58-31.644-13.296-32.797-30.984
		c-1.228-18.836,10.551-34.14,28.774-37.386c23.503-4.186,42.549,11.66,42.635,35.503C499.972,46.63,499.94,57.279,499.94,68.923z
		 M484.679,55.718c0-8.075,0.692-15.644-0.156-23.037c-1.401-12.208-10.686-19.169-22.784-18.155
		c-10.042,0.842-18.346,9.826-18.529,20.046c-0.195,10.894,8.186,20.113,19.836,21.046
		C469.837,56.163,476.708,55.718,484.679,55.718z"/>
	<path fill="#FFFFFF" d="M192.443,2.017c4.865,0,9.257,0,14.244,0c1.91,13.482-2.981,24.159-11.817,32.23
		c3.989,7.431,8.808,13.853,11.016,21.074c4.09,13.375,0.464,16.508-13.413,13.354c-0.525-27.255-17.643-27.79-40.069-24.893
		c0,8.04,0,16.228,0,25.136c-5.282,0-9.787,0-14.72,0c0-22.606,0-45.038,0-67.446c7.458-0.586,12.087,2.058,13.298,8.504
		c1.078,5.738,1.067,11.68,1.531,17.463C178.176,31.449,192.267,26.714,192.443,2.017z"/>
	<path fill="#FFFFFF" d="M286.522,0.342c-0.698,15.342,0.038,30.174-2.399,44.464c-2.721,15.956-19.865,26.577-36.62,25.288
		c-17.626-1.356-31.415-13.996-32.492-31.052c-0.789-12.504-0.155-25.099-0.155-37.617c8.52-0.612,13.809,3.707,14.357,12.007
		c0.437,6.621,0.091,13.29,0.22,19.935c0.256,13.139,8.988,22.398,20.913,22.286c11.694-0.11,20.207-9.098,20.586-21.875
		c0.197-6.641-0.145-13.314,0.375-19.924C271.96,5.539,275.656,2.121,286.522,0.342z"/>
	<path fill="#FFFFFF" d="M131.655,69.919c-16.708,0.122-33.797,2.761-46.913-11.821c-9.136-10.156-11.142-21.583-6.977-34.369
		c4.226-12.973,13.171-21.048,26.488-22.818c9.004-1.197,18.297-0.228,27.769-0.228c-0.568,7.677-4.218,11.962-11.286,12.962
		c-3.978,0.563-8.066,0.343-12.043,0.904c-10.106,1.427-17.278,9.298-17.814,19.219c-0.523,9.671,5.371,18.244,14.953,20.788
		c4.298,1.141,8.906,1.105,13.368,1.647C127.885,57.256,131.587,61.159,131.655,69.919z"/>
	<path fill="#FFFFFF" d="M71.721,1.72c-0.866,6.872-4.091,11.406-10.394,12.473c-5.509,0.933-11.21,0.735-17.386,1.067
		c0,17.899,0,35.339,0,52.671c-9.28,1.561-14.654-3.063-15.1-13.04c-0.466-10.402-0.424-20.826-0.585-31.241
		c-0.04-2.56-0.006-5.121-0.006-7.88C17.756,13.25,3.79,18.733,0.048,1.72C24.182,1.72,47.636,1.72,71.721,1.72z"/>
	<path fill="#FFFFFF" d="M131.78,27.881c-1.152,9.258-4.423,12.953-11.856,13.589c-4.469,0.382-9.193,0.873-13.425-0.19
		c-2.706-0.68-6.47-4.04-6.557-6.321c-0.087-2.28,3.633-6.518,5.997-6.753C114.334,27.373,122.862,27.881,131.78,27.881z"/>
</g>
</svg>
