<?xml version="1.0" encoding="utf-8"?>
<!-- Generator: Adobe Illustrator 17.0.0, SVG Export Plug-In . SVG Version: 6.00 Build 0)  -->
<!DOCTYPE svg PUBLIC "-//W3C//DTD SVG 1.1//EN" "http://www.w3.org/Graphics/SVG/1.1/DTD/svg11.dtd">
<svg version="1.1" id="Layer_1" xmlns="http://www.w3.org/2000/svg" xmlns:xlink="http://www.w3.org/1999/xlink" x="0px" y="0px"
	 width="1000px" height="406px" viewBox="-475 -178 1000 406" enable-background="new -475 -178 1000 406" xml:space="preserve">
<g>
	<path fill="#FFFFFF" d="M169.587,24.017c-2.28,59.078,45.671,101.327,99.249,100.901c54.746-0.435,95.131-41.101,98.883-91.908
		c4.935-66.831-48.558-106.3-95.208-107.913C214.179-76.919,166.929-29.491,169.587,24.017z"/>
	<path fill="#070203" d="M-1.793,10.472c24.136-24.126,48.557-46.915,71.008-71.501c17.403-19.059,35.628-37.23,53.946-55.313
		c32.179-31.765,69.844-52.493,115.599-58.629c59.48-7.976,112.988,5.482,159.237,43.053c38.532,31.301,62.768,72.607,71.322,121.73
		c5.294,30.402,4.083,61.096-5.048,91.024c-0.393,1.287-0.793,2.595-0.957,3.923c-0.127,1.025,0.111,2.096,0.229,3.727
		c16.92-5.973,32.361-14.43,47.912-22.641c10.209-5.39,8.216,5.192,11.349,8.816c3.933,4.549,2.387,7.529-3.074,10.043
		c-25.468,11.722-50.882,23.574-76.072,35.875c-7.237,3.534-10.149,3.435-13.336-5.234c-9.53-25.924-20.233-51.429-30.967-76.892
		c-3.547-8.414,2.066-10.236,7.362-12.663c5.969-2.735,9.593-0.702,11.891,5.547c6.578,17.89,13.549,35.635,20.833,54.657
		c5.612-9.167,7.173-18.938,8.671-28.14c8.203-50.375-1.935-96.887-31.683-138.676c-21.241-29.839-49.412-50.706-83.437-64.125
		c-21.162-8.346-43.44-12.704-65.619-12.193c-38.096,0.879-73.537,12.413-104.868,35.111c-4.859,3.52-9.277,7.353-13.47,11.544
		C105.899-67.367,62.864-24.149,19.519,18.756c-5.186,5.133-5.497,7.783-0.125,13.097c43.861,43.391,86.775,87.757,131.259,130.491
		c23.669,22.738,53.081,36.022,85.721,41.84c35.544,6.336,69.89,2.923,102.922-11.624c3.957-1.743,5.21-0.114,6.694,2.177
		c1.666,2.571,2.606,5.606,4.217,8.22c3.285,5.33,2.112,8.549-3.854,10.74c-17.424,6.399-35.26,12.204-53.636,13.537
		c-57.273,4.154-110.082-7.833-154.434-46.948c-29.64-26.14-57.05-54.469-83.817-83.524c-17.96-19.495-37.315-37.705-56.385-56.83
		C-42.684,85.281-86.503,127.04-129.305,169.79c-31.109,31.072-68.506,49.729-112.492,55.792
		c-55.786,7.689-106.935-3.698-151.824-37.289c-41.901-31.355-67.598-73.597-77.533-125.592
		c-10.402-54.437,0.498-104.472,30.24-150.12c30.65-47.042,75.057-76.463,129.846-86.707
		c53.875-10.073,105.813-0.748,152.032,30.039c23.659,15.76,43.001,36.796,61.569,58.454c11.274,13.151,24.392,24.72,36.671,37.011
		C-41.25-29.056-21.714-9.48-1.793,10.472z M-454.13,25.208c-0.447,13.066,1.808,25.72,4.457,38.33
		c7.342,34.954,24.149,65.03,48.982,90.232c15.775,16.009,34.539,28.304,55.256,37.695c36.15,16.386,73.78,19.995,112.009,11.752
		c37.187-8.018,68.924-27.09,95.534-54.451c27.103-27.869,54.223-55.722,81.409-83.51c10.168-10.393,20.027-21.18,30.997-30.664
		c8.144-7.04,7.626-11.077,0.015-18.489C-60.53-18.039-95.978-51.894-129.112-87.855c-21.75-23.606-45.402-43.02-74.996-55.367
		c-30.412-12.688-62.315-17.395-94.319-11.788c-44.076,7.722-82.107,27.646-111.746,62.828
		C-439.003-57.959-452.537-18.775-454.13,25.208z"/>
	<path fill="#070203" d="M169.587,24.017c-2.658-53.508,44.592-100.936,102.923-98.92c46.65,1.613,100.143,41.082,95.208,107.913
		c-3.752,50.807-44.137,91.473-98.883,91.908C215.257,125.344,167.307,83.095,169.587,24.017z M233.13,40.784
		c0,5.312,0.273,10.641-0.063,15.932c-0.523,8.223,3.076,11.36,11.239,11.39c13.537,0.05,13.536,0.386,13.541-13.517
		c0.001-3.895,0.156-7.798-0.026-11.685c-0.385-8.191,4.361-11.912,11.6-11.98c7.14-0.068,12.203,3.297,11.972,11.596
		c-0.138,4.954,0.188,9.926-0.07,14.87c-0.339,6.504-0.451,12.158,8.979,10.685c7.669-1.198,18.336,3.393,17.97-11.016
		c-0.269-10.617-0.132-21.248,0.014-31.87c0.032-2.372-1.594-6.27,3.454-5.775c1.72,0.169,3.753,1.04,4.416-1.298
		c0.712-2.513-1.454-3.776-3.11-4.995c-10.246-7.543-20.975-14.505-30.681-22.684c-7.883-6.644-14.508-8.576-22.365-0.438
		c-2.773,2.872-7.027,6.7-7.778-2.023c-0.232-2.697-3.382-1.808-5.369-1.813c-2.595-0.007-4.182,1.581-3.671,4.032
		c2.487,11.92-5.617,16.994-13.875,22.085c-2.113,1.303-4.602,2.843-4.391,5.564c0.342,4.417,3.275,1.861,5.435,1.64
		c3.455-0.354,2.711,2.409,2.741,4.303C233.18,29.451,233.122,35.118,233.13,40.784z"/>
	<path fill="#E21B79" d="M233.126,40.784c-0.004-5.666,0.054-11.333-0.036-16.998c-0.03-1.894,0.713-4.657-2.741-4.303
		c-2.159,0.221-5.092,2.778-5.435-1.64c-0.211-2.721,2.278-4.261,4.391-5.564c8.258-5.091,16.362-10.165,13.875-22.085
		c-0.511-2.451,1.076-4.039,3.671-4.032c1.987,0.005,5.137-0.884,5.369,1.813c0.75,8.722,5.005,4.895,7.778,2.023
		c7.857-8.138,14.482-6.205,22.365,0.438c9.706,8.179,20.434,15.142,30.681,22.684c1.656,1.219,3.822,2.482,3.11,4.995
		c-0.663,2.339-2.696,1.467-4.416,1.298c-5.048-0.495-3.422,3.403-3.454,5.775c-0.146,10.622-0.283,21.252-0.014,31.87
		c0.365,14.408-10.301,9.818-17.97,11.016c-9.43,1.473-9.318-4.181-8.979-10.685c0.258-4.944-0.068-9.916,0.07-14.87
		c0.231-8.299-4.832-11.664-11.972-11.596c-7.239,0.068-11.985,3.789-11.6,11.98c0.183,3.887,0.028,7.789,0.026,11.685
		c-0.005,13.903-0.003,13.567-13.541,13.517c-8.163-0.03-11.762-3.168-11.239-11.39C233.403,51.425,233.13,46.096,233.126,40.784z"
		/>
	<path fill="#070203" d="M-173.024,25.778c0.799,55.568-44.33,100.207-99.95,99.044c-58.582-1.225-98.653-42.85-99.483-99.647
		c-0.803-55.001,42.323-102.322,105.652-99.924C-217.369-72.877-171.396-30.877-173.024,25.778z M-296.28-16.982
		c-10.869-0.78-21.767,3.873-30.325,14.113c-4.753,5.687-5.773,12.116-3.385,18.898c2.256,6.408,7.761,7.4,13.817,7.495
		c6.969,0.109,10.659,3.169,11.33,10.941c0.729,8.443,6.298,12.897,15.281,12.823c7.526-0.062,14.857-0.695,21.737-3.927
		c11.009-5.171,18.37-12.802,18.406-25.976c0.037-13.399-5.337-23.128-17.632-28.849C-275.563-15.424-284.576-16.76-296.28-16.982z
		 M-215.885,23.009c-11.522,2.806-19.065,11.142-27.118,18.638c-2.093,1.949-3.534,4.535-0.903,7.403
		c3.015,3.286,5.283,0.518,7.128-1.186C-228.854,40.545-221.33,32.836-215.885,23.009z M-269.812,69.463
		c10.069,2.287,17.137,0.932,21.137-7.61c1.747-3.73,2.144-7.817-2.105-10.215c-3.864-2.181-6.804,0.428-8.995,3.26
		C-263.193,59.316-264.725,65-269.812,69.463z"/>
	<path fill="#E21B79" d="M-296.28-16.982c11.704,0.222,20.718,1.558,29.23,5.518c12.296,5.721,17.67,15.45,17.632,28.849
		c-0.037,13.175-7.397,20.806-18.406,25.976c-6.88,3.231-14.211,3.864-21.737,3.927c-8.983,0.074-14.552-4.38-15.281-12.823
		c-0.671-7.772-4.361-10.832-11.33-10.941c-6.057-0.095-11.562-1.087-13.817-7.495c-2.387-6.782-1.367-13.21,3.385-18.898
		C-318.048-13.109-307.149-17.763-296.28-16.982z M-292.763,25.525c-1.844,0.184-4.973,2.571-5.182,6.936
		c-0.234,4.901,2.518,7.74,7.861,7.779c5.143,0.038,7.193-3.4,7.169-7.355C-282.94,28.927-285.068,25.348-292.763,25.525z
		 M-285.273-10.435c-3.549,0.686-6.393,2.758-6.377,6.81c0.019,4.576,3.25,6.995,7.484,6.672c3.686-0.281,6.707-2.676,6.213-6.928
		C-278.397-7.709-280.828-10.151-285.273-10.435z M-302.354-10.457c-3.403,0.678-6.575,1.846-6.708,6.404
		c-0.126,4.306,2.33,6.868,6.19,7.168c3.863,0.3,6.645-1.763,6.751-6.222C-296.022-7.288-297.874-9.783-302.354-10.457z
		 M-260.395,5.369c-0.289-4.458-2.984-6.836-6.81-6.785c-3.806,0.05-6.332,2.325-6.232,6.793c0.099,4.382,2.327,6.766,6.394,6.669
		C-263.026,11.951-260.931,9.122-260.395,5.369z M-311.519,10.336c-0.052-3.808-1.56-6.161-5.551-6.391
		c-4.041-0.232-6.961,0.674-7.032,5.611c-0.056,3.904,1.936,6.23,5.39,6.723C-314.496,16.882-312.245,14.262-311.519,10.336z"/>
	<path fill="#E21B79" d="M-215.885,23.009c-5.444,9.827-12.968,17.536-20.892,24.854c-1.846,1.705-4.113,4.473-7.128,1.186
		c-2.631-2.868-1.19-5.454,0.903-7.403C-234.95,34.151-227.407,25.815-215.885,23.009z"/>
	<path fill="#E21B79" d="M-269.812,69.463c5.087-4.464,6.619-10.148,10.037-14.564c2.192-2.832,5.131-5.441,8.995-3.26
		c4.25,2.398,3.852,6.485,2.105,10.215C-252.675,70.395-259.743,71.751-269.812,69.463z"/>
	<path fill="#070203" d="M-292.763,25.525c7.695-0.177,9.823,3.403,9.848,7.361c0.024,3.955-2.025,7.392-7.169,7.355
		c-5.342-0.039-8.095-2.878-7.861-7.779C-297.736,28.096-294.607,25.708-292.763,25.525z"/>
	<path fill="#070203" d="M-285.273-10.435c4.445,0.284,6.876,2.725,7.32,6.554c0.493,4.252-2.528,6.647-6.213,6.928
		c-4.234,0.323-7.465-2.096-7.484-6.672C-291.667-7.677-288.822-9.748-285.273-10.435z"/>
	<path fill="#070203" d="M-302.354-10.457c4.48,0.674,6.332,3.169,6.233,7.349c-0.106,4.459-2.887,6.523-6.751,6.222
		c-3.86-0.3-6.316-2.861-6.19-7.168C-308.929-8.611-305.757-9.778-302.354-10.457z"/>
	<path fill="#070203" d="M-260.395,5.369c-0.536,3.753-2.631,6.582-6.648,6.677c-4.067,0.096-6.295-2.288-6.394-6.669
		c-0.101-4.467,2.425-6.742,6.232-6.793C-263.379-1.467-260.684,0.911-260.395,5.369z"/>
	<path fill="#070203" d="M-311.519,10.336c-0.727,3.926-2.978,6.546-7.193,5.944c-3.455-0.493-5.447-2.819-5.39-6.723
		c0.071-4.937,2.991-5.843,7.032-5.611C-313.078,4.174-311.571,6.528-311.519,10.336z"/>
</g>
</svg>
