<?xml version="1.0" encoding="utf-8"?>
<!-- Generator: Adobe Illustrator 17.0.0, SVG Export Plug-In . SVG Version: 6.00 Build 0)  -->
<!DOCTYPE svg PUBLIC "-//W3C//DTD SVG 1.1//EN" "http://www.w3.org/Graphics/SVG/1.1/DTD/svg11.dtd">
<svg version="1.1" id="Layer_1" xmlns="http://www.w3.org/2000/svg" xmlns:xlink="http://www.w3.org/1999/xlink" x="0px" y="0px"
	 width="16px" height="16px" viewBox="0 0 16 16" enable-background="new 0 0 16 16" xml:space="preserve">
<g>
	<path fill="#4E5967" d="M4.85,1.896c1.62,0.031,2.868,0.216,4.047,0.764c1.702,0.792,2.446,2.139,2.441,3.994
		c-0.005,1.824-1.024,2.88-2.548,3.596c-0.952,0.447-1.967,0.535-3.009,0.544c-1.244,0.01-2.015-0.606-2.116-1.775
		c-0.093-1.076-0.604-1.5-1.569-1.515C1.258,7.49,0.496,7.353,0.184,6.466c-0.33-0.939-0.189-1.829,0.469-2.616
		C1.837,2.432,3.346,1.788,4.85,1.896z M5.337,7.781C5.082,7.806,4.649,8.136,4.62,8.741C4.588,9.419,4.969,9.812,5.708,9.818
		C6.42,9.823,6.704,9.347,6.701,8.8C6.697,8.252,6.403,7.756,5.337,7.781z M6.374,2.802C5.883,2.897,5.489,3.184,5.491,3.745
		c0.003,0.634,0.45,0.968,1.036,0.924c0.51-0.039,0.928-0.37,0.86-0.959C7.326,3.18,6.99,2.842,6.374,2.802z M4.009,2.799
		c-0.471,0.094-0.91,0.256-0.929,0.887C3.063,4.282,3.403,4.637,3.938,4.678c0.535,0.042,0.92-0.244,0.935-0.861
		C4.886,3.238,4.63,2.893,4.009,2.799z M9.818,4.99c-0.04-0.617-0.413-0.946-0.943-0.939c-0.527,0.007-0.877,0.322-0.863,0.94
		c0.014,0.607,0.322,0.937,0.885,0.923C9.454,5.901,9.744,5.51,9.818,4.99z M2.741,5.678C2.734,5.151,2.525,4.825,1.972,4.793
		C1.413,4.761,1.009,4.886,0.999,5.57C0.991,6.11,1.267,6.432,1.745,6.501C2.329,6.584,2.64,6.221,2.741,5.678z"/>
	<path fill="#4E5967" d="M15.98,7.432c-0.754,1.36-1.795,2.428-2.892,3.441c-0.256,0.236-0.569,0.619-0.987,0.164
		c-0.364-0.397-0.165-0.755,0.125-1.025C13.341,8.975,14.385,7.821,15.98,7.432z"/>
	<path fill="#4E5967" d="M8.515,13.863c0.704-0.618,0.916-1.405,1.389-2.016c0.303-0.392,0.71-0.753,1.245-0.451
		c0.588,0.332,0.533,0.898,0.291,1.414C10.887,13.992,9.909,14.18,8.515,13.863z"/>
</g>
<path fill="none" d="M0,0h36v36H0V0z"/>
</svg>
