<?xml version="1.0" encoding="utf-8"?>
<!-- Generator: Adobe Illustrator 17.0.0, SVG Export Plug-In . SVG Version: 6.00 Build 0)  -->
<!DOCTYPE svg PUBLIC "-//W3C//DTD SVG 1.1//EN" "http://www.w3.org/Graphics/SVG/1.1/DTD/svg11.dtd">
<svg version="1.1" id="Layer_1" xmlns="http://www.w3.org/2000/svg" xmlns:xlink="http://www.w3.org/1999/xlink" x="0px" y="0px"
	 width="48px" height="48px" viewBox="0 0 48 48" enable-background="new 0 0 48 48" xml:space="preserve">
<path fill="none" d="M0,0h24v24H0V0z"/>
<g>
	<g>
		<path fill="#FFFFFF" d="M42.633,0H5.367C2.412,0,0.043,2.396,0.043,5.324v37.265c0,2.928,2.369,5.324,5.324,5.324h37.265
			c2.955,0,5.324-2.396,5.324-5.324V5.324C47.957,2.396,45.588,0,42.633,0z M35.935,32.526l-3.366,3.366L24,27.322l-8.57,8.57
			l-3.366-3.366l8.57-8.57l-8.57-8.57l3.366-3.366l8.57,8.57l8.57-8.57l3.366,3.366l-8.57,8.57L35.935,32.526z"/>
	</g>
</g>
</svg>
