<?xml version="1.0" encoding="utf-8"?>
<!-- Generator: Adobe Illustrator 17.0.0, SVG Export Plug-In . SVG Version: 6.00 Build 0)  -->
<!DOCTYPE svg PUBLIC "-//W3C//DTD SVG 1.1//EN" "http://www.w3.org/Graphics/SVG/1.1/DTD/svg11.dtd">
<svg version="1.1" id="Layer_1" xmlns="http://www.w3.org/2000/svg" xmlns:xlink="http://www.w3.org/1999/xlink" x="0px" y="0px"
	 width="50px" height="50px" viewBox="0 0 50 50" enable-background="new 0 0 50 50" xml:space="preserve">
<g>
	<path d="M21.425,29.156c0.311-0.731,0.215-1.24,0.216-1.733c0.007-7.822-0.002-15.644,0.01-23.466
		c0.004-2.508,1.083-3.845,3.047-3.865c1.88-0.019,3.125,1.358,3.128,3.523c0.01,7.99,0.004,15.981,0.004,23.971
		c0,0.447,0,0.895,0,1.681c0.859-0.861,1.515-1.478,2.129-2.141c2.55-2.749,5.084-5.515,7.63-8.267
		c1.616-1.746,3.8-1.844,5.236-0.252c1.425,1.58,1.322,3.995-0.287,5.734c-5.066,5.473-10.14,10.937-15.22,16.394
		c-1.62,1.741-3.556,1.71-5.204-0.067c-4.55-4.908-9.09-9.825-13.639-14.734c-0.547-0.591-1.142-1.131-1.675-1.737
		c-1.441-1.641-1.49-4.043-0.139-5.58c1.335-1.519,3.576-1.549,5.09,0.03c1.978,2.062,3.901,4.188,5.839,6.295
		C18.842,26.3,20.079,27.675,21.425,29.156z"/>
	<path d="M24.699,49.905c-5.358-0.001-10.716,0.008-16.074-0.007c-1.444-0.004-2.596-0.943-2.959-2.322
		c-0.389-1.48,0.079-2.9,1.22-3.786c0.531-0.413,1.119-0.527,1.747-0.527c10.716,0.001,21.432-0.007,32.147,0.008
		c1.939,0.003,3.224,1.373,3.219,3.313c-0.005,1.936-1.32,3.312-3.227,3.317C35.415,49.914,30.057,49.906,24.699,49.905z"/>
</g>
</svg>
