<?xml version="1.0" encoding="utf-8"?>
<!-- Generator: Adobe Illustrator 17.0.0, SVG Export Plug-In . SVG Version: 6.00 Build 0)  -->
<!DOCTYPE svg PUBLIC "-//W3C//DTD SVG 1.1//EN" "http://www.w3.org/Graphics/SVG/1.1/DTD/svg11.dtd">
<svg version="1.1" id="Layer_1" xmlns="http://www.w3.org/2000/svg" xmlns:xlink="http://www.w3.org/1999/xlink" x="0px" y="0px"
	 width="48px" height="48px" viewBox="0 0 48 48" enable-background="new 0 0 48 48" xml:space="preserve">
<g>
	<linearGradient id="SVGID_1_" gradientUnits="userSpaceOnUse" x1="24" y1="48" x2="24" y2="-1.346052e-10">
		<stop  offset="0" style="stop-color:#EC008B"/>
		<stop  offset="0.13" style="stop-color:#ED0284"/>
		<stop  offset="0.33" style="stop-color:#F00770"/>
		<stop  offset="0.56" style="stop-color:#F4104F"/>
		<stop  offset="0.82" style="stop-color:#FA1D22"/>
		<stop  offset="1" style="stop-color:#FF2600"/>
	</linearGradient>
	<path fill="url(#SVGID_1_)" d="M46,11v29c0,4.4-3.6,8-8,8H23.4c-2.16,0-4.2-0.86-5.7-2.38L2,29.66c0,0,2.52-2.46,2.6-2.5
		c0.44-0.38,0.98-0.58,1.58-0.58c0.44,0,0.84,0.12,1.2,0.32C7.46,26.92,16,31.82,16,31.82V8c0-1.66,1.34-3,3-3s3,1.34,3,3v14h2V3
		c0-1.66,1.34-3,3-3s3,1.34,3,3v19h2V5c0-1.66,1.34-3,3-3s3,1.34,3,3v17h2V11c0-1.66,1.34-3,3-3S46,9.34,46,11z"/>
</g>
</svg>
