<?xml version="1.0" encoding="utf-8"?>
<!-- Generator: Adobe Illustrator 17.0.0, SVG Export Plug-In . SVG Version: 6.00 Build 0)  -->
<!DOCTYPE svg PUBLIC "-//W3C//DTD SVG 1.1//EN" "http://www.w3.org/Graphics/SVG/1.1/DTD/svg11.dtd">
<svg version="1.1" id="Layer_1" xmlns="http://www.w3.org/2000/svg" xmlns:xlink="http://www.w3.org/1999/xlink" x="0px" y="0px"
	 width="50px" height="50px" viewBox="0 0 50 50" enable-background="new 0 0 50 50" xml:space="preserve">
<g>
	<path d="M30.378,8.964c3.651,3.64,7.004,6.983,10.492,10.46c-0.554,0.593-1.168,1.289-1.822,1.944
		c-8.915,8.927-17.867,17.817-26.72,26.805c-1.342,1.363-2.673,1.916-4.535,1.815c-2.484-0.135-4.98-0.033-7.784-0.033
		c0-3.345-0.034-6.51,0.033-9.673c0.011-0.529,0.343-1.168,0.728-1.557C10.62,28.792,20.497,18.885,30.378,8.964z"/>
	<path d="M44.373,16.195c-3.699-3.697-7.048-7.044-10.668-10.663c1.538-1.459,3.176-3.112,4.924-4.641
		c1.375-1.202,2.838-1.128,4.161,0.186c2.026,2.012,4.047,4.029,6.058,6.057c1.411,1.423,1.382,2.917,0.056,4.352
		C47.385,13.13,45.802,14.715,44.373,16.195z"/>
</g>
</svg>
