<?xml version="1.0" encoding="utf-8"?>
<!-- Generator: Adobe Illustrator 17.0.0, SVG Export Plug-In . SVG Version: 6.00 Build 0)  -->
<!DOCTYPE svg PUBLIC "-//W3C//DTD SVG 1.1//EN" "http://www.w3.org/Graphics/SVG/1.1/DTD/svg11.dtd">
<svg version="1.1" id="Layer_1" xmlns="http://www.w3.org/2000/svg" xmlns:xlink="http://www.w3.org/1999/xlink" x="0px" y="0px"
	 width="50px" height="50px" viewBox="0 0 50 50" enableBackground="new 0 0 50 50" xml:space="preserve">
<path fill="#FFFFFF" d="M13.118,16.353c1.771,0,3.479,0,5.311,0c0-1.783-0.035-3.465,0.01-5.144c0.039-1.453,0.012-2.934,0.29-4.348
	c0.653-3.322,2.828-5.322,6.027-6.184c4.002-1.079,8.094-0.453,12.236-0.633c0,3.055,0,5.977,0,9.045c-1.595,0-3.144-0.001-4.692,0
	c-0.464,0-0.929-0.01-1.393,0.01c-1.124,0.048-1.739,0.579-1.776,1.716c-0.058,1.787-0.015,3.577-0.015,5.503
	c2.64,0,5.236,0,8.025,0c-0.267,2.958-0.52,5.762-0.784,8.693c-2.471,0-4.806,0-7.238,0c0,8.383,0,16.628,0,24.98
	c-3.584,0-7.067,0-10.648,0c0-8.28,0-16.523,0-24.908c-1.823,0-3.557,0-5.351,0C13.118,22.137,13.118,19.333,13.118,16.353z"/>
</svg>
