<?xml version="1.0" encoding="utf-8"?>
<!-- Generator: Adobe Illustrator 17.0.0, SVG Export Plug-In . SVG Version: 6.00 Build 0)  -->
<!DOCTYPE svg PUBLIC "-//W3C//DTD SVG 1.1//EN" "http://www.w3.org/Graphics/SVG/1.1/DTD/svg11.dtd">
<svg version="1.1" id="Layer_1" xmlns="http://www.w3.org/2000/svg" xmlns:xlink="http://www.w3.org/1999/xlink" x="0px" y="0px"
	 width="48px" height="48px" viewBox="0 0 48 48" enable-background="new 0 0 48 48" xml:space="preserve">
<path fill="none" d="M0,0h48v48H0V0z"/>
<path fill="#FFFFFF" d="M41.579,26.36c0.095-0.764,0.167-1.528,0.167-2.339c0-0.812-0.072-1.575-0.167-2.339l5.036-3.938
	c0.454-0.358,0.573-1.002,0.286-1.528l-4.774-8.259c-0.286-0.525-0.931-0.716-1.456-0.525l-5.943,2.387
	c-1.241-0.955-2.578-1.742-4.034-2.339l-0.907-6.325c-0.072-0.573-0.573-1.002-1.17-1.002h-9.548c-0.597,0-1.098,0.43-1.17,1.002
	L16.994,7.48c-1.456,0.597-2.793,1.408-4.034,2.339L7.017,7.432c-0.549-0.215-1.17,0-1.456,0.525l-4.774,8.259
	c-0.31,0.525-0.167,1.17,0.286,1.528l5.036,3.938c-0.095,0.764-0.167,1.551-0.167,2.339c0,0.788,0.072,1.575,0.167,2.339
	l-5.036,3.938c-0.454,0.358-0.573,1.002-0.286,1.528l4.774,8.259c0.286,0.525,0.931,0.716,1.456,0.525l5.943-2.387
	c1.241,0.955,2.578,1.742,4.034,2.339l0.907,6.325c0.072,0.573,0.573,1.002,1.17,1.002h9.548c0.597,0,1.098-0.43,1.17-1.002
	l0.907-6.325c1.456-0.597,2.793-1.408,4.034-2.339l5.943,2.387c0.549,0.215,1.17,0,1.456-0.525l4.774-8.259
	c0.286-0.525,0.167-1.17-0.286-1.528L41.579,26.36z M24,35.919c-6.573,0-11.919-5.347-11.919-11.919S17.427,12.081,24,12.081
	S35.919,17.427,35.919,24S30.573,35.919,24,35.919z"/>
</svg>
