<?xml version="1.0" encoding="utf-8"?>
<!-- Generator: Adobe Illustrator 17.0.0, SVG Export Plug-In . SVG Version: 6.00 Build 0)  -->
<!DOCTYPE svg PUBLIC "-//W3C//DTD SVG 1.1//EN" "http://www.w3.org/Graphics/SVG/1.1/DTD/svg11.dtd">
<svg version="1.1" id="Layer_1" xmlns="http://www.w3.org/2000/svg" xmlns:xlink="http://www.w3.org/1999/xlink" x="0px" y="0px"
	 width="50px" height="50px" viewBox="0 0 50 50" enableBackground="new 0 0 50 50" xml:space="preserve">
<path fill="#FFFFFF" d="M42.219,6.504c-2.432,2.436-4.829,4.838-7.202,7.216c-0.743-0.545-1.468-1.141-2.254-1.64
	c-1.744-1.107-3.664-1.723-5.722-1.918c-4.496-0.425-8.372,0.958-11.61,4.071c-2.402,2.309-3.898,5.14-4.379,8.448
	c-0.71,4.887,0.657,9.161,4.041,12.745c2.278,2.413,5.088,3.912,8.4,4.34c3.851,0.498,7.47-0.164,10.71-2.413
	c2.404-1.669,4.108-4.378,4.623-7.311c-0.152,0-0.295,0-0.439,0c-4.149-0.002-8.298-0.004-12.447-0.006c-0.5,0-0.501,0-0.502-0.488
	c-0.003-3.049,0-6.098-0.013-9.147c-0.001-0.335,0.083-0.446,0.438-0.446c7.573,0.01,15.146,0.008,22.719,0.008
	c0.122,0,0.245,0.011,0.407,0.019c0.126,0.865,0.304,1.707,0.359,2.557c0.09,1.392,0.173,2.792,0.128,4.184
	c-0.123,3.779-0.911,7.417-2.622,10.81C43.743,43.7,38.76,47.537,32.095,49.228c-2.594,0.658-5.241,0.884-7.905,0.741
	c-9.957-0.535-18.442-6.84-21.969-15.846c-0.803-2.051-1.376-4.163-1.545-6.362c-0.109-1.416-0.223-2.848-0.133-4.26
	c0.368-5.775,2.465-10.86,6.336-15.181c3.489-3.894,7.789-6.459,12.882-7.647c1.253-0.292,2.544-0.452,3.827-0.572
	C24.689,0,25.809-0.029,26.914,0.031c4.244,0.233,8.193,1.43,11.786,3.737C39.964,4.579,41.142,5.497,42.219,6.504z"/>
</svg>
