<?xml version="1.0" encoding="utf-8"?>
<!-- Generator: Adobe Illustrator 17.0.0, SVG Export Plug-In . SVG Version: 6.00 Build 0)  -->
<!DOCTYPE svg PUBLIC "-//W3C//DTD SVG 1.1//EN" "http://www.w3.org/Graphics/SVG/1.1/DTD/svg11.dtd">
<svg version="1.1" id="Layer_1" xmlns="http://www.w3.org/2000/svg" xmlns:xlink="http://www.w3.org/1999/xlink" x="0px" y="0px"
	 width="48px" height="48px" viewBox="0 0 48 48" enable-background="new 0 0 48 48" xml:space="preserve">
<path fill="none" d="M0,0h24v24H0V0z"/>
<g>
	<g>
		<path fill="#FFFFFF" d="M42.633,0H5.367C2.412,0,0.043,2.396,0.043,5.324v37.265c0,2.928,2.369,5.324,5.324,5.324h37.265
			c2.955,0,5.324-2.396,5.324-5.324V5.324C47.957,2.396,45.588,0,42.633,0z M35.609,33.121l-2.512,2.512
			c-0.437,0.437-1.092,0.437-1.529,0l-9.94-9.94c-2.512,0.983-5.462,0.437-7.537-1.639c-2.185-2.185-2.731-5.462-1.42-8.083
			l4.806,4.697l3.277-3.277l-4.697-4.697c2.622-1.202,5.899-0.765,8.083,1.42c2.076,2.076,2.622,5.025,1.639,7.537l9.94,9.94
			C36.156,31.92,36.156,32.684,35.609,33.121z"/>
	</g>
</g>
</svg>
