<?xml version="1.0" encoding="utf-8"?>
<!-- Generator: Adobe Illustrator 17.0.0, SVG Export Plug-In . SVG Version: 6.00 Build 0)  -->
<!DOCTYPE svg PUBLIC "-//W3C//DTD SVG 1.1//EN" "http://www.w3.org/Graphics/SVG/1.1/DTD/svg11.dtd">
<svg version="1.1" id="Layer_1" xmlns="http://www.w3.org/2000/svg" xmlns:xlink="http://www.w3.org/1999/xlink" x="0px" y="0px"
	 width="50px" height="50px" viewBox="0 0 50 50" enable-background="new 0 0 50 50" xml:space="preserve">
<g>
	<path d="M49.953,25.063c0,0.625-0.048,1.254,0.012,1.872c0.076,0.783-0.125,1.54-0.255,2.278c-0.119,0.676-0.323,1.375-0.478,2.052
		c-0.311,1.351-0.815,2.629-1.279,3.916c-0.338,0.937-0.865,1.827-1.43,2.655c-0.473,0.693-0.851,1.444-1.419,2.091
		c-0.604,0.687-1.109,1.466-1.767,2.116c-0.514,0.508-1.021,1.025-1.535,1.533c-1.214,1.199-2.623,2.126-4.077,3.006
		c-0.762,0.462-1.553,0.852-2.346,1.246c-0.834,0.415-3.171,1.262-4.307,1.509c-1.16,0.252-2.325,0.447-3.498,0.63
		c-1.432,0.223-2.853,0.185-4.262,0.11c-1.069-0.057-2.154-0.261-3.227-0.482c-1.274-0.262-2.497-0.632-3.713-1.057
		c-1.356-0.474-2.64-1.095-3.878-1.833c-0.798-0.476-1.578-0.97-2.329-1.514c-0.045-0.033-0.138-0.003-0.18-0.037
		c-1.462-1.201-2.845-2.502-4.076-3.926c-0.802-0.927-1.51-1.958-2.156-3.031c-0.635-1.054-1.135-2.167-1.713-3.243
		c-0.593-1.105-0.899-2.326-1.209-3.542c-0.261-1.027-0.434-2.064-0.627-3.102c-0.181-0.976-0.099-1.926-0.141-2.886
		c-0.043-0.984-0.129-1.991,0.023-2.953c0.159-1.005,0.301-2.02,0.527-3.021c0.224-0.993,0.513-1.971,0.86-2.906
		c0.366-0.988,0.708-2.009,1.257-2.929c0.714-1.196,1.454-2.372,2.291-3.492c0.89-1.191,1.851-2.312,2.947-3.307
		c1.347-1.224,2.748-2.371,4.355-3.274c0.774-0.434,1.55-0.873,2.347-1.25c1.183-0.56,2.423-0.975,3.699-1.314
		c0.976-0.259,1.991-0.38,2.936-0.758c0.028-0.011,0.065,0,0.098-0.002c1.746-0.115,3.492-0.302,5.242-0.181
		c0.496,0.034,0.981,0.197,1.497,0.196c0.499-0.001,1.016,0.055,1.492,0.197c0.827,0.245,1.711,0.29,2.498,0.631
		c0.755,0.326,1.542,0.571,2.307,0.856c1.8,0.672,3.419,1.655,4.989,2.705c1.751,1.171,3.273,2.657,4.639,4.251
		c1.185,1.382,2.191,2.91,3.042,4.545c0.806,1.548,1.486,3.139,1.976,4.801c0.207,0.702,0.331,1.449,0.501,2.167
		C49.954,21.938,49.978,23.493,49.953,25.063z M29.013,39.847c0-6.157,0-12.225,0-18.292c-2.75-0.117-7.063-0.076-7.823,0.066
		c0,6.074,0,12.143,0,18.226C23.81,39.847,26.396,39.847,29.013,39.847z M20.96,12.487c0,0.588-0.003,1.244,0.002,1.899
		c0.002,0.191-0.017,0.398,0.049,0.569c0.391,1.026,1.059,1.816,1.974,2.441c0.483,0.33,1.028,0.428,1.543,0.542
		c0.498,0.11,1.085,0.169,1.582-0.163c1.313-0.116,2.086-1.034,2.715-2.011c0.593-0.921,0.724-1.943,0.466-3.109
		c-0.284-1.285-1.115-2.023-2.014-2.754c-0.372-0.302-0.853-0.479-1.398-0.428c-0.324,0.031-0.74-0.266-0.982-0.146
		c-0.44,0.218-0.875,0.098-1.103,0.146C22.332,10.089,21.514,11.077,20.96,12.487z"/>
</g>
</svg>
