<?xml version="1.0" encoding="utf-8"?>
<!-- Generator: Adobe Illustrator 17.0.0, SVG Export Plug-In . SVG Version: 6.00 Build 0)  -->
<!DOCTYPE svg PUBLIC "-//W3C//DTD SVG 1.1//EN" "http://www.w3.org/Graphics/SVG/1.1/DTD/svg11.dtd">
<svg version="1.1" id="Layer_1" xmlns="http://www.w3.org/2000/svg" xmlns:xlink="http://www.w3.org/1999/xlink" x="0px" y="0px"
	 width="50px" height="50px" viewBox="-1 -1 50 50" enableBackground="new -1 -1 50 50" xml:space="preserve">
<path fill="none" d="M0,0h48v48H0V0z"/>
<path fill="#FFFFFF" d="M5.227,17.746c-3.434,0-6.244,2.81-6.244,6.244s2.81,6.244,6.244,6.244s6.244-2.81,6.244-6.244
	S8.661,17.746,5.227,17.746z M42.692,17.746c-3.434,0-6.244,2.81-6.244,6.244s2.81,6.244,6.244,6.244
	c3.434,0,6.244-2.81,6.244-6.244S46.126,17.746,42.692,17.746z M23.959,17.746c-3.434,0-6.244,2.81-6.244,6.244
	s2.81,6.244,6.244,6.244s6.244-2.81,6.244-6.244S27.394,17.746,23.959,17.746z"/>
</svg>
