<?xml version="1.0" encoding="utf-8"?>
<!-- Generator: Adobe Illustrator 17.0.0, SVG Export Plug-In . SVG Version: 6.00 Build 0)  -->
<!DOCTYPE svg PUBLIC "-//W3C//DTD SVG 1.1//EN" "http://www.w3.org/Graphics/SVG/1.1/DTD/svg11.dtd">
<svg version="1.1" id="Layer_1" xmlns="http://www.w3.org/2000/svg" xmlns:xlink="http://www.w3.org/1999/xlink" x="0px" y="0px"
	 width="60px" height="60px" viewBox="-5 -5 60 60" enable-background="new -5 -5 60 60" xml:space="preserve">
<rect x="-4.999" y="-5" fill="#292E3A" width="60" height="60"/>
<g>
	<path fill="#FFFFFF" d="M24.988,46.999c-7.058,0-14.115,0.005-21.173-0.003c-1.712-0.002-3.103-1.003-3.616-2.595
		c-0.124-0.385-0.188-0.807-0.189-1.213c-0.011-7.038-0.014-14.076,0.004-21.114c0.001-0.559,0.102-1.14,0.275-1.674
		C2.036,14.985,3.808,9.578,5.575,4.17C5.87,3.266,6.052,3.139,7.022,3.139c11.874,0,23.749,0,35.623,0
		c0.953,0,1.11,0.106,1.409,0.995c1.7,5.058,3.396,10.118,5.1,15.176c0.106,0.314,0.293,0.601,0.385,0.918
		c0.174,0.596,0.435,1.204,0.438,1.807c0.03,7.097,0.026,14.194,0.016,21.291c-0.003,1.992-1.708,3.668-3.714,3.67
		C39.182,47.002,32.085,46.998,24.988,46.999z M32.12,18.236c4.916,0,9.767,0,14.661,0c-0.046-0.192-0.069-0.344-0.118-0.488
		c-1.371-4.092-2.752-8.181-4.105-12.279c-0.147-0.447-0.398-0.482-0.783-0.482C30.51,4.994,19.247,4.996,7.983,4.98
		c-0.532-0.001-0.78,0.121-0.95,0.665c-0.92,2.939-1.892,5.862-2.846,8.791c-0.411,1.262-0.824,2.525-1.251,3.834
		c5.02,0,9.965,0,14.942,0c0.01,0.181,0.016,0.334,0.028,0.486c0.079,1.072,0.85,1.837,1.924,1.841
		c3.44,0.013,6.88,0.013,10.32,0.001c1.101-0.004,1.878-0.784,1.945-1.885C32.103,18.577,32.109,18.443,32.12,18.236z
		 M18.117,33.763c0.188-0.637,0.37-1.194,0.515-1.761c0.284-1.109-0.279-2.109-1.33-2.397c-1.015-0.278-2.006,0.288-2.333,1.363
		c-0.417,1.371-0.821,2.745-1.208,4.124c-0.382,1.361,0.49,2.497,1.916,2.498c6.352,0.004,12.703,0.003,19.055-0.001
		c1.555-0.001,2.413-1.178,1.935-2.653c-0.424-1.307-0.862-2.609-1.303-3.91c-0.401-1.182-1.405-1.74-2.469-1.387
		c-1.064,0.353-1.534,1.405-1.152,2.585c0.162,0.5,0.33,0.999,0.509,1.538C27.527,33.763,22.871,33.763,18.117,33.763z"/>
	<path fill="#FFFFFF" d="M24.703,16.319c-5.701,0-11.402,0-17.102,0c-0.157,0-0.315,0.005-0.472-0.001
		c-0.604-0.025-0.997-0.399-0.99-0.939c0.008-0.535,0.404-0.903,1.019-0.909c1.179-0.011,2.359-0.006,3.538-0.006
		c10.478,0.001,20.955,0.002,31.433,0.004c0.195,0,0.403-0.017,0.584,0.041c0.436,0.14,0.694,0.452,0.668,0.926
		c-0.027,0.467-0.302,0.765-0.752,0.862c-0.227,0.049-0.47,0.025-0.705,0.025c-5.74,0.001-11.48,0.001-17.22,0.001
		C24.703,16.321,24.703,16.32,24.703,16.319z"/>
	<path fill="#FFFFFF" d="M24.703,12.545c-5.485,0-10.97,0-16.454-0.001c-0.747,0-1.172-0.345-1.166-0.944
		c0.005-0.588,0.423-0.91,1.193-0.91c9.358-0.001,18.715-0.001,28.073-0.001c1.632,0,3.263-0.002,4.895,0.001
		c0.769,0.001,1.191,0.325,1.199,0.907c0.008,0.605-0.423,0.946-1.225,0.946C35.712,12.547,30.207,12.546,24.703,12.545z"/>
	<path fill="#FFFFFF" d="M24.759,6.911c4.974,0,9.947,0,14.921,0c0.118,0,0.236-0.002,0.354,0.003
		c0.605,0.03,1.002,0.406,0.994,0.939c-0.008,0.528-0.416,0.91-1.021,0.913c-1.592,0.009-3.185,0.004-4.777,0.003
		c-8.491,0.001-16.984,0-25.477-0.002c-0.177,0-0.359,0.015-0.529-0.022C8.762,8.646,8.452,8.198,8.501,7.737
		c0.052-0.484,0.427-0.814,0.983-0.818c1.435-0.011,2.87-0.007,4.305-0.007C17.446,6.911,21.103,6.911,24.759,6.911z"/>
</g>
</svg>
