<?xml version="1.0" encoding="utf-8"?>
<!-- Generator: Adobe Illustrator 17.0.0, SVG Export Plug-In . SVG Version: 6.00 Build 0)  -->
<!DOCTYPE svg PUBLIC "-//W3C//DTD SVG 1.1//EN" "http://www.w3.org/Graphics/SVG/1.1/DTD/svg11.dtd">
<svg version="1.1" id="Layer_1" xmlns="http://www.w3.org/2000/svg" xmlns:xlink="http://www.w3.org/1999/xlink" x="0px" y="0px"
	 width="50px" height="50px" viewBox="0 0 50 50" enable-background="new 0 0 50 50" xml:space="preserve">
<g id="Add_Button_3_">
	<g>
		<path fill="#FFFFFF" d="M30.959,30.966c4.324,0,8.525-0.001,12.726,0c3.323,0.001,6.071-2.706,6.089-6.001
			c0.018-3.402-2.696-6.141-6.094-6.145c-3.822-0.004-7.644-0.004-11.466-0.005c-0.397,0-0.794,0-1.255,0c0-0.273,0-0.471,0-0.668
			c0.002-3.341,0.009-6.682,0.001-10.023c-0.003-1.036,0.082-2.095-0.1-3.103c-0.559-3.099-3.385-5.264-6.373-4.999
			c-3.299,0.292-5.667,2.861-5.673,6.175c-0.007,3.872-0.002,7.745-0.002,11.617c0,0.319,0,0.638,0,1.005c-0.448,0-0.799,0-1.15,0
			c-3.847,0-7.694-0.006-11.541,0.003C2.7,18.83-0.006,21.543,0,24.939c0.006,3.331,2.738,6.02,6.135,6.025
			c3.948,0.006,7.897,0.001,11.845,0.001c0.266,0,0.532,0,0.832,0c0,0.339,0,0.565,0,0.791c0,3.999-0.002,7.998,0.002,11.997
			c0.003,3.332,2.759,6.036,6.132,6.028c3.292-0.008,6.015-2.76,6.014-6.076c-0.001-3.594-0.001-7.188-0.001-10.782
			C30.959,32.297,30.959,31.67,30.959,30.966z"/>
		<path fill="#FFFFFF" d="M30.959,30.966c0,0.704,0,1.331,0,1.958c0,3.594,0,7.188,0.001,10.782
			c0.001,3.316-2.722,6.068-6.014,6.076c-3.373,0.008-6.128-2.696-6.132-6.028c-0.004-3.999-0.001-7.998-0.002-11.997
			c0-0.226,0-0.452,0-0.791c-0.3,0-0.566,0-0.832,0c-3.948,0-7.897,0.004-11.845-0.001C2.738,30.959,0.006,28.27,0,24.939
			c-0.006-3.397,2.7-6.11,6.122-6.118c3.847-0.009,7.694-0.002,11.541-0.003c0.351,0,0.701,0,1.15,0c0-0.367,0-0.686,0-1.005
			c0-3.872-0.005-7.745,0.002-11.617c0.006-3.314,2.373-5.883,5.673-6.175c2.989-0.265,5.814,1.9,6.373,4.999
			c0.182,1.008,0.097,2.067,0.1,3.103c0.008,3.341,0.001,6.682-0.001,10.023c0,0.197,0,0.395,0,0.668c0.461,0,0.858,0,1.255,0
			c3.822,0.002,7.644,0.001,11.466,0.005c3.398,0.004,6.112,2.743,6.094,6.145c-0.018,3.296-2.765,6.002-6.089,6.001
			C39.485,30.965,35.284,30.966,30.959,30.966z"/>
	</g>
</g>
</svg>
