<?xml version="1.0" encoding="utf-8"?>
<!-- Generator: Adobe Illustrator 17.0.0, SVG Export Plug-In . SVG Version: 6.00 Build 0)  -->
<!DOCTYPE svg PUBLIC "-//W3C//DTD SVG 1.1//EN" "http://www.w3.org/Graphics/SVG/1.1/DTD/svg11.dtd">
<svg version="1.1" id="Layer_1" xmlns="http://www.w3.org/2000/svg" xmlns:xlink="http://www.w3.org/1999/xlink" x="0px" y="0px"
	 width="50px" height="50px" viewBox="0 0 50 50" enableBackground="new 0 0 50 50" xml:space="preserve">
<g>
	<path d="M30.904,30.911c4.317,0,8.51-0.001,12.703,0c3.317,0.001,6.06-2.701,6.078-5.99c0.018-3.395-2.691-6.13-6.083-6.134
		c-3.815-0.004-7.63-0.004-11.445-0.005c-0.396,0-0.792,0-1.253,0c0-0.273,0-0.47,0-0.667c0.002-3.335,0.009-6.67,0.001-10.005
		c-0.003-1.034,0.082-2.092-0.099-3.098c-0.558-3.093-3.378-5.254-6.362-4.99c-3.294,0.292-5.656,2.856-5.663,6.164
		c-0.007,3.866-0.002,7.731-0.002,11.597c0,0.318,0,0.636,0,1.003c-0.447,0-0.797,0-1.148,0c-3.84,0-7.681-0.006-11.521,0.002
		C2.696,18.796-0.006,21.504,0,24.895c0.006,3.325,2.733,6.009,6.124,6.014c3.941,0.006,7.883,0.001,11.824,0.001
		c0.266,0,0.531,0,0.831,0c0,0.339,0,0.564,0,0.79c0,3.992-0.002,7.984,0.002,11.976c0.003,3.326,2.754,6.026,6.121,6.017
		c3.286-0.008,6.004-2.755,6.003-6.065c-0.001-3.588-0.001-7.175-0.001-10.763C30.904,32.239,30.904,31.614,30.904,30.911z"/>
	<path d="M30.904,30.911c0,0.703,0,1.329,0,1.954c0,3.588,0,7.175,0.001,10.763c0.001,3.31-2.717,6.057-6.003,6.065
		c-3.367,0.008-6.117-2.692-6.121-6.017c-0.004-3.992-0.001-7.984-0.002-11.976c0-0.225,0-0.451,0-0.79c-0.299,0-0.565,0-0.831,0
		c-3.941,0-7.883,0.004-11.824-0.001C2.733,30.904,0.006,28.22,0,24.895c-0.006-3.391,2.696-6.099,6.111-6.107
		c3.84-0.009,7.681-0.002,11.521-0.002c0.35,0,0.7,0,1.148,0c0-0.367,0-0.685,0-1.003c0-3.866-0.005-7.731,0.002-11.597
		c0.006-3.308,2.369-5.872,5.663-6.164c2.983-0.264,5.804,1.897,6.362,4.99c0.181,1.006,0.097,2.064,0.099,3.098
		c0.008,3.335,0.001,6.67-0.001,10.005c0,0.197,0,0.394,0,0.667c0.46,0,0.856,0,1.253,0c3.815,0.002,7.63,0.001,11.445,0.005
		c3.392,0.004,6.101,2.738,6.083,6.134c-0.018,3.29-2.76,5.991-6.078,5.99C39.414,30.91,35.221,30.911,30.904,30.911z"/>
</g>
</svg>
