<?xml version="1.0" encoding="utf-8"?>
<!-- Generator: Adobe Illustrator 17.0.0, SVG Export Plug-In . SVG Version: 6.00 Build 0)  -->
<!DOCTYPE svg PUBLIC "-//W3C//DTD SVG 1.1//EN" "http://www.w3.org/Graphics/SVG/1.1/DTD/svg11.dtd">
<svg version="1.1" id="Layer_1" xmlns="http://www.w3.org/2000/svg" xmlns:xlink="http://www.w3.org/1999/xlink" x="0px" y="0px"
	 width="48px" height="48px" viewBox="0 0 48 48" enable-background="new 0 0 48 48" xml:space="preserve">
<path fill="#FFFFFF" d="M16.221,23.27c-1.769,0-3.204,1.435-3.204,3.204s1.435,3.204,3.204,3.204c1.769,0,3.204-1.435,3.204-3.204
	S17.99,23.27,16.221,23.27z M31.601,23.27c-1.769,0-3.204,1.435-3.204,3.204s1.435,3.204,3.204,3.204s3.204-1.435,3.204-3.204
	S33.37,23.27,31.601,23.27z M24.003,0.04C10.775,0.04,0.04,10.775,0.04,24.003s10.736,23.964,23.964,23.964
	s23.964-10.736,23.964-23.964S37.231,0.04,24.003,0.04z M23.911,44.417c-11.304,0-20.506-9.202-20.506-20.506
	c0-0.743,0.051-1.487,0.128-2.204c6.049-2.691,10.843-7.639,13.355-13.765c4.64,6.562,12.278,10.843,20.916,10.843
	c1.999,0,3.922-0.231,5.767-0.666c0.538,1.82,0.846,3.768,0.846,5.793C44.417,35.215,35.215,44.417,23.911,44.417z"/>
<path fill="none" d="M0,0h48v48H0V0z"/>
</svg>
