<?xml version="1.0" encoding="utf-8"?>
<!-- Generator: Adobe Illustrator 17.0.0, SVG Export Plug-In . SVG Version: 6.00 Build 0)  -->
<!DOCTYPE svg PUBLIC "-//W3C//DTD SVG 1.1//EN" "http://www.w3.org/Graphics/SVG/1.1/DTD/svg11.dtd">
<svg version="1.1" id="Layer_1" xmlns="http://www.w3.org/2000/svg" xmlns:xlink="http://www.w3.org/1999/xlink" x="0px" y="0px"
	 width="50px" height="50px" viewBox="0 0 50 50" enable-background="new 0 0 50 50" xml:space="preserve">
<g>
	<path d="M17.59,17.171c-1.938,2.107-3.861,4.233-5.839,6.295c-1.514,1.579-3.755,1.549-5.09,0.03
		c-1.351-1.537-1.302-3.939,0.139-5.58c0.533-0.606,1.128-1.146,1.675-1.737c4.549-4.909,9.089-9.826,13.639-14.734
		c1.648-1.777,3.584-1.808,5.204-0.067c5.08,5.457,10.154,10.921,15.22,16.394c1.609,1.739,1.712,4.154,0.287,5.734
		c-1.436,1.592-3.62,1.494-5.236-0.252c-2.546-2.752-5.08-5.518-7.63-8.267c-0.614-0.663-1.27-1.28-2.129-2.141
		c0,0.786,0,1.234,0,1.681c0,7.99,0.006,15.981-0.004,23.971c-0.003,2.165-1.248,3.542-3.128,3.523
		c-1.964-0.02-3.043-1.357-3.047-3.865c-0.012-7.822-0.003-15.644-0.01-23.466c-0.001-0.493,0.095-1.002-0.216-1.733
		C20.079,14.438,18.842,15.813,17.59,17.171z"/>
	<path d="M24.699,49.905c-5.358-0.001-10.716,0.008-16.074-0.007c-1.444-0.004-2.596-0.943-2.959-2.322
		c-0.389-1.48,0.079-2.9,1.22-3.786c0.531-0.413,1.119-0.527,1.747-0.527c10.716,0.001,21.432-0.007,32.147,0.008
		c1.939,0.003,3.224,1.373,3.219,3.313c-0.005,1.936-1.32,3.312-3.227,3.317C35.415,49.914,30.057,49.906,24.699,49.905z"/>
</g>
</svg>
