<?xml version="1.0" encoding="utf-8"?>
<!-- Generator: Adobe Illustrator 17.0.0, SVG Export Plug-In . SVG Version: 6.00 Build 0)  -->
<!DOCTYPE svg PUBLIC "-//W3C//DTD SVG 1.1//EN" "http://www.w3.org/Graphics/SVG/1.1/DTD/svg11.dtd">
<svg version="1.1" xmlns="http://www.w3.org/2000/svg" xmlns:xlink="http://www.w3.org/1999/xlink" x="0px" y="0px" width="1042px"
	 height="1042px" viewBox="0 0 1042 1042" enable-background="new 0 0 1042 1042" xml:space="preserve">
<g id="Layer_2">
	<rect fill="#CDCCCC" width="1042" height="1042"/>
</g>
<g id="Layer_1">
	<g>
		<path fill="#CDCCCC" d="M0.509,1041.509c0-347.333,0-694.667,0-1042c347.333,0,694.667,0,1042,0c0,347.333,0,694.667,0,1042
			C695.176,1041.509,347.842,1041.509,0.509,1041.509z M480.758,619.489c0.57,0.868,0.814,1.205,1.023,1.563
			c3.709,6.366,8.446,11.899,14.007,16.677c19.999,17.187,43.411,25.963,69.547,27.777c9.324,0.647,18.634,0.085,27.924-0.925
			c15.585-1.695,30.683-5.353,45.27-11.084c30.713-12.068,55.921-31.566,76.636-57.05c18.215-22.408,31.421-47.591,40.882-74.786
			c12.143-34.904,17.612-70.93,17.967-107.814c0.114-11.808-0.423-23.559-2.295-35.226c-3.794-23.647-11.438-45.985-23.082-66.913
			c-20.705-37.216-50.06-65.758-87.276-86.24c-36.372-20.018-75.602-29.383-116.911-30.447c-25.85-0.666-51.478,1.582-76.793,7.006
			c-28.628,6.133-55.795,16.147-80.978,31.159c-48.119,28.684-82.831,68.872-102.98,121.296
			c-9.677,25.177-14.451,51.308-13.969,78.333c0.2,11.201,1.129,22.338,2.941,33.401c2.476,15.115,6.517,29.769,12.766,43.777
			c7.849,17.595,18.643,33.024,33.582,45.371c8.226,6.799,17.302,12.185,27.174,16.239c3.14,1.29,6.37,1.879,9.686,1.027
			c5.043-1.296,7.841-4.933,9.097-9.709c3.014-11.464,5.917-22.958,8.715-34.476c1.02-4.202,0.356-8.278-2.243-11.872
			c-1.34-1.852-2.782-3.631-4.162-5.455c-2.351-3.108-4.839-6.126-7.008-9.358c-11.177-16.651-16.248-35.28-17.264-55.091
			c-1.05-20.48,1.206-40.645,7.071-60.312c12.972-43.492,38.451-77.555,77.365-101.169c28.179-17.1,59.114-24.965,91.869-26.139
			c12.642-0.453,25.248,0.152,37.798,1.885c14.244,1.966,28.107,5.373,41.443,10.781c22.548,9.144,41.674,22.888,56.397,42.421
			c17.624,23.381,25.793,50.092,27.275,79.027c0.625,12.199,0.13,24.405-0.816,36.594c-1.195,15.4-3.375,30.646-6.745,45.718
			c-4.509,20.165-10.959,39.658-20.339,58.119c-7.536,14.83-16.68,28.537-28.596,40.245c-15.07,14.806-32.628,24.679-54.004,26.796
			c-11.228,1.112-22.16-0.11-32.678-4.363c-25.411-10.275-39.633-35.504-34.917-62.426c1.21-6.906,2.972-13.746,4.937-20.482
			c5.453-18.695,11.189-37.307,16.734-55.976c5.042-16.975,9.931-33.999,11.71-51.708c1.085-10.808,0.553-21.52-2.876-31.926
			c-4.117-12.496-11.424-22.425-23.394-28.487c-7.258-3.676-15.05-5.146-23.102-5.213c-11.937-0.1-22.902,3.266-32.891,9.778
			c-10.817,7.052-19.01,16.537-25.335,27.69c-9.796,17.274-14.005,36.044-14.64,55.726c-0.266,8.234,0.277,16.435,1.382,24.601
			c1.689,12.48,4.646,24.624,9.609,36.23c0.631,1.476,0.761,2.826,0.386,4.405c-6.241,26.281-12.423,52.576-18.632,78.865
			c-8.914,37.744-17.841,75.485-26.76,113.227c-2.298,9.726-4.749,19.43-5.899,29.376c-1.002,8.666-1.911,17.35-2.546,26.049
			c-1.063,14.563-0.951,29.157-0.09,43.721c0.675,11.416,1.729,22.814,2.819,34.201c0.581,6.067,1.531,12.102,2.438,18.132
			c0.462,3.07,2.544,4.478,5.611,4.174c1.767-0.175,2.876-1.25,3.902-2.56c17.706-22.608,33.568-46.42,46.82-71.921
			c8.535-16.423,15.906-33.342,20.566-51.309c7.696-29.669,15.245-59.377,22.853-89.069
			C478.697,627.614,479.647,623.856,480.758,619.489z"/>
		<path fill="#FFFFFF" d="M480.758,619.489c-1.111,4.367-2.06,8.125-3.022,11.88c-7.609,29.692-15.157,59.4-22.853,89.069
			c-4.66,17.967-12.031,34.886-20.566,51.309c-13.253,25.501-29.114,49.313-46.82,71.921c-1.025,1.309-2.134,2.384-3.902,2.56
			c-3.067,0.304-5.149-1.104-5.611-4.174c-0.907-6.031-1.857-12.065-2.438-18.132c-1.09-11.387-2.143-22.784-2.819-34.201
			c-0.862-14.564-0.973-29.158,0.09-43.721c0.635-8.699,1.544-17.383,2.546-26.049c1.15-9.946,3.6-19.651,5.899-29.376
			c8.92-37.743,17.846-75.483,26.76-113.227c6.209-26.289,12.39-52.584,18.632-78.865c0.375-1.579,0.245-2.929-0.386-4.405
			c-4.964-11.605-7.92-23.75-9.609-36.23c-1.105-8.166-1.648-16.367-1.382-24.601c0.635-19.683,4.844-38.452,14.64-55.726
			c6.325-11.154,14.518-20.638,25.335-27.69c9.989-6.512,20.953-9.878,32.891-9.778c8.052,0.068,15.845,1.538,23.102,5.213
			c11.97,6.062,19.277,15.99,23.394,28.487c3.429,10.407,3.962,21.118,2.876,31.926c-1.779,17.709-6.668,34.733-11.71,51.708
			c-5.545,18.669-11.28,37.281-16.734,55.976c-1.965,6.737-3.727,13.576-4.937,20.482c-4.715,26.922,9.507,52.151,34.917,62.426
			c10.518,4.253,21.45,5.476,32.678,4.363c21.375-2.117,38.934-11.99,54.004-26.796c11.917-11.708,21.06-25.415,28.596-40.245
			c9.38-18.461,15.83-37.953,20.339-58.119c3.37-15.072,5.55-30.317,6.745-45.718c0.945-12.188,1.44-24.394,0.816-36.594
			c-1.482-28.936-9.651-55.646-27.275-79.027c-14.723-19.532-33.849-33.277-56.397-42.421c-13.336-5.408-27.198-8.814-41.443-10.781
			c-12.55-1.733-25.156-2.338-37.798-1.885c-32.755,1.175-63.69,9.04-91.869,26.139c-38.914,23.614-64.393,57.677-77.365,101.169
			c-5.866,19.667-8.122,39.832-7.071,60.312c1.016,19.812,6.087,38.441,17.264,55.091c2.169,3.231,4.657,6.249,7.008,9.358
			c1.38,1.824,2.822,3.602,4.162,5.455c2.6,3.594,3.264,7.671,2.243,11.872c-2.797,11.518-5.701,23.012-8.715,34.476
			c-1.255,4.775-4.054,8.413-9.097,9.709c-3.316,0.852-6.546,0.263-9.686-1.027c-9.872-4.055-18.948-9.441-27.174-16.239
			c-14.939-12.347-25.733-27.776-33.582-45.371c-6.249-14.008-10.29-28.662-12.766-43.777c-1.812-11.063-2.741-22.2-2.941-33.401
			c-0.482-27.025,4.292-53.156,13.969-78.333c20.149-52.424,54.861-92.612,102.98-121.296c25.184-15.012,52.35-25.026,80.978-31.159
			c25.315-5.423,50.943-7.671,76.793-7.006c41.309,1.064,80.539,10.429,116.911,30.447c37.216,20.483,66.57,49.025,87.276,86.24
			c11.643,20.928,19.288,43.266,23.082,66.913c1.872,11.667,2.409,23.418,2.295,35.226c-0.355,36.883-5.825,72.91-17.967,107.814
			c-9.461,27.194-22.667,52.377-40.882,74.786c-20.715,25.484-45.924,44.982-76.636,57.05c-14.587,5.732-29.685,9.389-45.27,11.084
			c-9.289,1.01-18.6,1.572-27.924,0.925c-26.136-1.814-49.548-10.589-69.547-27.777c-5.561-4.779-10.298-10.311-14.007-16.677
			C481.572,620.694,481.327,620.357,480.758,619.489z"/>
	</g>
</g>
</svg>
