<?xml version="1.0" encoding="utf-8"?>
<!-- Generator: Adobe Illustrator 17.0.0, SVG Export Plug-In . SVG Version: 6.00 Build 0)  -->
<!DOCTYPE svg PUBLIC "-//W3C//DTD SVG 1.1//EN" "http://www.w3.org/Graphics/SVG/1.1/DTD/svg11.dtd">
<svg version="1.1" id="Layer_1" xmlns="http://www.w3.org/2000/svg" xmlns:xlink="http://www.w3.org/1999/xlink" x="0px" y="0px"
	 width="1000px" height="1000px" viewBox="0 0 1000 1000" enable-background="new 0 0 1000 1000" xml:space="preserve">
<g>
	<path fill="#FFFFFF" d="M499.313,0.009c-153.13,0-306.259-0.034-459.389,0.027C6.795,0.049,0.08,6.353,0.07,38.596
		c-0.093,307.155-0.093,614.31-0.004,921.464c0.01,34.309,6.154,40.175,41.27,40.182c305.364,0.057,610.728,0.057,916.091,0
		c35.106-0.007,41.235-5.868,41.245-40.207c0.088-306.259,0.082-612.519,0.011-918.778c-0.008-35.881-5.73-41.228-42.668-41.235
		C803.781-0.008,651.547,0.009,499.313,0.009z"/>
	<path fill="#161517" d="M499.313,0.009c152.234,0,304.468-0.017,456.702,0.013c36.938,0.007,42.66,5.354,42.668,41.235
		c0.071,306.259,0.078,612.519-0.011,918.778c-0.01,34.339-6.138,40.201-41.245,40.207c-305.364,0.057-610.728,0.057-916.091,0
		c-35.116-0.007-41.26-5.873-41.27-40.182C-0.022,652.906-0.023,345.751,0.07,38.596C0.08,6.353,6.795,0.049,39.924,0.036
		C193.053-0.024,346.183,0.009,499.313,0.009z M512.188,105.959c-126.229,0-252.461,0.391-378.685-0.423
		c-18.872-0.122-23.934,5.298-23.89,23.953c0.581,245.295,0.578,490.592,0.003,735.887c-0.044,18.588,4.912,24.034,23.84,23.987
		c250.666-0.619,501.335-0.644,752.001,0.042c19.309,0.053,23.314-5.732,23.27-23.983c-0.594-245.295-0.727-490.593,0.169-735.886
		c0.08-21.783-7.639-24.071-26.08-23.961C759.277,106.315,635.731,105.959,512.188,105.959z"/>
	<path fill="#FFFFFF" d="M512.188,105.959c123.543,0,247.089,0.356,370.628-0.385c18.441-0.111,26.16,2.177,26.08,23.961
		c-0.896,245.293-0.763,490.591-0.169,735.886c0.044,18.252-3.961,24.036-23.27,23.983c-250.666-0.685-501.335-0.66-752.001-0.042
		c-18.928,0.047-23.884-5.399-23.84-23.987c0.575-245.295,0.577-490.592-0.003-735.887c-0.044-18.655,5.019-24.074,23.89-23.953
		C259.727,106.351,385.958,105.959,512.188,105.959z M499.386,721.353c65.31,0,130.627-0.53,195.924,0.352
		c17.524,0.237,25.06-2.787,24.92-22.969c-0.917-132.403-0.775-264.816-0.104-397.221c0.087-17.228-4.138-23.056-22.161-22.96
		c-132.405,0.701-264.818,0.704-397.223-0.003c-18.078-0.097-22.211,5.825-22.125,22.996c0.662,132.406,0.812,264.819-0.11,397.222
		c-0.141,20.233,7.478,23.167,24.954,22.933C368.759,720.829,434.076,721.353,499.386,721.353z"/>
	<path fill="#EA2E7C" d="M499.386,721.353c-65.31,0-130.627-0.524-195.925,0.349c-17.476,0.234-25.095-2.7-24.954-22.933
		c0.922-132.403,0.772-264.816,0.11-397.222c-0.086-17.171,4.047-23.092,22.125-22.996c132.405,0.707,264.817,0.704,397.223,0.003
		c18.023-0.095,22.249,5.732,22.161,22.96c-0.67,132.405-0.813,264.819,0.104,397.221c0.14,20.182-7.396,23.205-24.92,22.969
		C630.012,720.823,564.695,721.353,499.386,721.353z"/>
</g>
</svg>
