<?xml version="1.0" encoding="utf-8"?>
<!-- Generator: Adobe Illustrator 17.0.0, SVG Export Plug-In . SVG Version: 6.00 Build 0)  -->
<!DOCTYPE svg PUBLIC "-//W3C//DTD SVG 1.1//EN" "http://www.w3.org/Graphics/SVG/1.1/DTD/svg11.dtd">
<svg version="1.1" id="Layer_1" xmlns="http://www.w3.org/2000/svg" xmlns:xlink="http://www.w3.org/1999/xlink" x="0px" y="0px"
	 width="500px" height="335px" viewBox="-225 -142.5 500 335" enableBackground="new -225 -142.5 500 335" xml:space="preserve">
<rect x="-225" y="-142.476" fill="#FFFFFF" width="500" height="334.952"/>
<g>
	<path fill="#D3D3D3" d="M-162.461,130.096c11.303-23.169,22.737-46.275,33.88-69.521c20.402-42.563,40.628-85.21,60.942-127.815
		c1.074-2.254,2.289-4.44,3.923-7.593C-29.215-28.77,4.793,16.634,39.406,62.846c17.235-13.726,34.23-27.261,51.75-41.214
		c28.006,36.578,55.639,72.671,84.061,109.793c-2.99,0.334-4.773,0.706-6.557,0.707c-108.409,0.027-216.818,0.025-325.228,0.007
		c-1.965,0-3.929-0.229-5.894-0.352C-162.461,131.223-162.461,130.66-162.461,130.096z"/>
	<path fill="#D3D3D3" d="M100.256-38.604c0.453-17.715,15.912-32.417,33.63-31.983c18.011,0.441,32.98,15.656,32.548,33.082
		c-0.438,17.658-15.965,32.417-33.647,31.984C114.765-5.962,99.811-21.169,100.256-38.604z"/>
</g>
</svg>
