<?xml version="1.0" encoding="utf-8"?>
<!-- Generator: Adobe Illustrator 17.0.0, SVG Export Plug-In . SVG Version: 6.00 Build 0)  -->
<!DOCTYPE svg PUBLIC "-//W3C//DTD SVG 1.1//EN" "http://www.w3.org/Graphics/SVG/1.1/DTD/svg11.dtd">
<svg version="1.1" xmlns="http://www.w3.org/2000/svg" xmlns:xlink="http://www.w3.org/1999/xlink" x="0px" y="0px" width="1042px"
	 height="1042px" viewBox="0 0 1042 1042" enable-background="new 0 0 1042 1042" xml:space="preserve">
<g id="Layer_2">
	<rect width="1042" height="1042"/>
</g>
<g id="Layer_1">
	<g>
		<path d="M0.509,1041.509c0-347.333,0-694.667,0-1042c347.333,0,694.667,0,1042,0c0,347.333,0,694.667,0,1042
			C695.176,1041.509,347.842,1041.509,0.509,1041.509z M829.464,266.289c-0.529,0-0.714-0.055-0.836,0.009
			c-0.674,0.357-1.335,0.738-1.996,1.119c-24.713,14.244-51.051,24.229-78.934,30.202c-2.108,0.452-3.481,0.14-5.079-1.483
			c-31.836-32.315-76.322-46.274-120.842-37.677c-32.889,6.35-59.655,23.026-80.284,49.339
			c-15.416,19.664-24.387,42.069-27.199,66.931c-1.526,13.5-0.996,26.902,1.552,40.237c0.297,1.552,0.562,3.11,0.901,4.994
			c-30.261-1.479-59.667-6.419-88.413-15.046c-74.769-22.438-136.744-64.212-186.807-124.42
			c-12.258,21.289-18.506,43.923-18.035,68.14c0.9,46.33,21.107,82.651,58.626,110.058c-10.802-0.34-20.952-2.034-30.942-4.798
			c-9.96-2.756-19.41-6.796-28.851-11.803c-0.058,27.75,7.106,52.906,22.315,75.564c20.186,30.072,48.234,48.859,83.463,57.23
			c-19.352,5.284-38.906,5.837-58.939,2.157c6.43,19.726,16.454,36.765,30.494,51.322c25.464,26.403,56.745,40.065,93.612,41.673
			c-36.974,30.019-106.554,65.221-196.398,55.387c0.661,0.611,1.399,1.114,2.155,1.586c56.746,35.48,118.557,54.841,185.399,57.885
			c22.811,1.039,45.589,0.089,68.278-2.756c18.606-2.333,36.968-5.845,55.042-10.83c55.997-15.445,105.477-42.724,148.271-82.01
			c34.799-31.946,62.458-69.305,83.517-111.537c22.626-45.378,36.421-93.281,40.537-143.893c1.032-12.687,1.492-25.386,1.055-38.113
			c-0.09-2.618-0.013-5.241-0.013-8.02c12.842-9.303,24.872-19.729,35.966-31.226c11.097-11.501,21.135-23.848,29.838-37.326
			c-12.069,4.93-24.224,9.317-36.721,12.738c-15.019,4.112-34.715,7.829-37.888,7.041
			C799.853,321.424,818.996,297.381,829.464,266.289z"/>
		<path fill="#FFFFFF" d="M829.464,266.289c-10.468,31.092-29.612,55.135-57.156,72.673c3.174,0.788,22.869-2.929,37.888-7.041
			c12.497-3.421,24.653-7.808,36.721-12.738c-8.703,13.478-18.741,25.825-29.838,37.326c-11.094,11.498-23.124,21.923-35.966,31.226
			c0,2.78-0.077,5.403,0.013,8.02c0.436,12.727-0.024,25.427-1.055,38.113c-4.115,50.613-17.91,98.515-40.537,143.893
			c-21.058,42.233-48.717,79.591-83.517,111.537c-42.794,39.286-92.274,66.566-148.271,82.01
			c-18.074,4.985-36.436,8.497-55.042,10.83c-22.689,2.845-45.467,3.794-68.278,2.756c-66.842-3.044-128.653-22.405-185.399-57.885
			c-0.756-0.473-1.493-0.976-2.155-1.586c89.844,9.833,159.424-25.369,196.398-55.387c-36.867-1.608-68.148-15.27-93.612-41.673
			c-14.04-14.557-24.064-31.596-30.494-51.322c20.033,3.68,39.587,3.127,58.939-2.157c-35.229-8.371-63.277-27.158-83.463-57.23
			c-15.209-22.658-22.373-47.813-22.315-75.564c9.441,5.007,18.891,9.047,28.851,11.803c9.99,2.764,20.139,4.458,30.942,4.798
			c-37.519-27.407-57.726-63.727-58.626-110.058c-0.47-24.217,5.778-46.852,18.035-68.14
			c50.063,60.207,112.038,101.982,186.807,124.42c28.746,8.627,58.152,13.567,88.413,15.046c-0.339-1.883-0.604-3.442-0.901-4.994
			c-2.548-13.334-3.079-26.737-1.552-40.237c2.811-24.863,11.782-47.267,27.199-66.931c20.629-26.313,47.395-42.989,80.284-49.339
			c44.521-8.596,89.007,5.362,120.842,37.677c1.598,1.622,2.97,1.934,5.079,1.483c27.883-5.973,54.221-15.958,78.934-30.202
			c0.661-0.381,1.322-0.762,1.996-1.119C828.75,266.234,828.935,266.289,829.464,266.289z"/>
	</g>
</g>
</svg>
