<?xml version="1.0" encoding="utf-8"?>
<!-- Generator: Adobe Illustrator 17.0.0, SVG Export Plug-In . SVG Version: 6.00 Build 0)  -->
<!DOCTYPE svg PUBLIC "-//W3C//DTD SVG 1.1//EN" "http://www.w3.org/Graphics/SVG/1.1/DTD/svg11.dtd">
<svg version="1.1" id="Layer_1" xmlns="http://www.w3.org/2000/svg" xmlns:xlink="http://www.w3.org/1999/xlink" x="0px" y="0px"
	 width="50px" height="50px" viewBox="0 0 50 50" enable-background="new 0 0 50 50" xml:space="preserve">
<g>
	<g>
		<path fill="#FFFFFF" d="M19.068,15.998l0.313,0.855l0.602,1.645l0.312,0.852l0.847,0.326l1.702,0.656l2.145,0.827l0.799,0.308
			l0.775-0.366l1.145-0.541l1.262-0.596l1.133,1.096l-1.181,2.472l-0.374,0.783l0.316,0.808l0.58,1.483l0.913,2.333l0.327,0.836
			l0.842,0.311l2.472,0.915v1.589l-2.214,0.821l-0.267,0.099l-0.861,0.319l-0.319,0.861l-0.723,1.951l-0.707,1.908l-0.292,0.789
			l0.36,0.761l0.669,1.415l0.479,1.013l-1.128,1.125l-2.419-1.138l-0.818-0.385l-0.829,0.36l-1.832,0.795l-2.033,0.882l-0.804,0.349
			l-0.289,0.827L19.042,48h-1.528l-0.927-2.657l-0.284-0.814l-0.787-0.352l-1.019-0.456l-2.818-1.263l-0.84-0.376l-0.832,0.393
			l-1.314,0.621l-1.133,0.535l-1.137-1.136l1.126-2.406l0.386-0.826l-0.37-0.833l-1.717-3.868l-0.352-0.794l-0.821-0.284
			l-1.629-0.565L2,32.555v-1.521l1.958-0.679l0.721-0.25l0.803-0.278l0.357-0.772l1.77-3.825l0.393-0.85l-0.401-0.847l-0.758-1.598
			l-0.4-0.843l1.122-1.119l2.447,1.167l0.79,0.377l0.813-0.325l2.128-0.851l1.692-0.677l0.828-0.331l0.307-0.837l0.735-2.002
			l0.182-0.496H19.068 M18.268,40.974L18.268,40.974c5.063,0,9.186-4.111,9.192-9.164c0.006-5.057-4.079-9.181-9.127-9.192
			c-5.172,0-9.226,4.025-9.23,9.162c-0.002,2.462,0.948,4.772,2.673,6.505C13.504,40.019,15.809,40.974,18.268,40.974
			 M20.465,13.998c-1.484,0-2.91,0-4.374,0c-0.481,1.311-0.958,2.609-1.398,3.809c-1.318,0.527-2.546,1.018-3.82,1.528
			c-1.231-0.587-2.517-1.2-3.721-1.774c-1.064,1.061-2.073,2.068-3.121,3.113c0.585,1.233,1.195,2.52,1.763,3.717
			c-0.599,1.295-1.164,2.515-1.77,3.825C2.75,28.658,1.368,29.137,0,29.611c0,1.492,0,2.916,0,4.368
			c1.4,0.485,2.782,0.964,4.021,1.394c0.604,1.36,1.148,2.587,1.717,3.868c-0.569,1.216-1.163,2.487-1.72,3.677
			c1.07,1.069,2.08,2.079,3.125,3.123c1.235-0.584,2.523-1.192,3.72-1.758c1.311,0.587,2.537,1.136,3.837,1.719
			c0.443,1.268,0.918,2.631,1.396,3.998c1.48,0,2.905,0,4.368,0c0.479-1.372,0.955-2.737,1.396-4
			c1.32-0.573,2.554-1.108,3.865-1.677c1.193,0.561,2.48,1.166,3.689,1.735c1.063-1.06,2.074-2.069,3.12-3.112
			c-0.586-1.24-1.195-2.528-1.751-3.703c0.498-1.344,0.957-2.584,1.43-3.859c1.242-0.46,2.522-0.935,3.786-1.403
			c0-1.482,0-2.908,0-4.373c-1.291-0.478-2.57-0.951-3.778-1.398c-0.505-1.291-0.987-2.523-1.493-3.816
			c0.578-1.21,1.193-2.496,1.802-3.771c-1.056-1.021-2.082-2.013-3.163-3.058c-1.196,0.565-2.499,1.181-3.657,1.729
			c-1.353-0.521-2.57-0.991-3.847-1.483C21.41,16.579,20.934,15.279,20.465,13.998L20.465,13.998z M18.268,38.974
			c-3.976,0-7.168-3.204-7.165-7.193c0.003-4.002,3.195-7.164,7.23-7.164c0.006,0,0.012,0,0.018,0
			c3.924,0.009,7.114,3.235,7.109,7.19C25.455,35.782,22.252,38.974,18.268,38.974L18.268,38.974z"/>
	</g>
	<g>
		<path fill="#FFFFFF" d="M36.685,2.404l0.263,0.286l0.655,0.714l0.446,0.486h0.659h2.351h0.662l0.446-0.488l0.909-0.996l0.339,0.14
			v1.347v0.641l0.463,0.443l1.82,1.741l0.463,0.443l0.641-0.029l1.128-0.051l0.147,0.352l-0.994,0.911l-0.487,0.446v0.66v2.332
			v0.663l0.49,0.446l1.014,0.924l-0.143,0.346l-1.195-0.059l-0.672-0.033l-0.472,0.48l-1.374,1.397l-0.413,0.42l-0.467,0.475
			l0.039,0.665l0.02,0.339l0.051,0.857l-0.256,0.109l-0.798-0.937l-0.449-0.527h-0.693h-2.255h-0.674l-0.448,0.504l-0.175,0.197
			l-0.75,0.844l-0.635-0.239l0.001-0.012l0.051-1.156l0.029-0.663l-0.471-0.468l-1.829-1.815l-0.509-0.468l-0.666,0.037
			l-1.155,0.064l-0.143-0.347l0.412-0.373l0.613-0.556l0.493-0.447v-0.665V9.453V8.794l-0.485-0.446l-0.822-0.756l-0.186-0.171
			l0.142-0.345L32.14,7.09l0.836,0.037l0.653,0.029l0.466-0.459l1.851-1.823l0.475-0.468l-0.029-0.667l-0.048-1.086l-0.005-0.104
			L36.685,2.404 M39.883,16.235L39.883,16.235L39.883,16.235L39.883,16.235c1.486,0,2.886-0.584,3.943-1.644
			c1.065-1.068,1.649-2.485,1.645-3.99c-0.009-3.124-2.472-5.572-5.619-5.572c-1.494,0.003-2.896,0.591-3.948,1.655
			c-1.057,1.069-1.632,2.487-1.618,3.993C34.312,13.742,36.823,16.235,39.883,16.235 M37.078,0.613
			c-0.797,0.334-1.55,0.65-2.284,0.957c0.038,0.871,0.074,1.673,0.099,2.236c-0.684,0.673-1.226,1.207-1.851,1.823
			c-0.623-0.027-1.423-0.062-2.217-0.097c-0.33,0.805-0.633,1.543-0.938,2.288c0.64,0.588,1.244,1.143,1.778,1.634
			c0,0.845,0,1.586,0,2.331c-0.603,0.547-1.196,1.085-1.806,1.637c0.322,0.78,0.627,1.522,0.951,2.307
			c0.853-0.047,1.654-0.091,2.255-0.124c0.657,0.652,1.197,1.188,1.829,1.815c-0.028,0.639-0.063,1.439-0.099,2.255
			c0.856,0.322,1.68,0.632,2.618,0.985c0.558-0.628,1.119-1.26,1.61-1.812c0.846,0,1.546,0,2.255,0
			c0.501,0.588,0.995,1.168,1.512,1.776c0.762-0.323,1.496-0.635,2.244-0.952c-0.049-0.83-0.096-1.631-0.133-2.253
			c0.635-0.646,1.169-1.189,1.788-1.817c0.647,0.032,1.445,0.072,2.251,0.112c0.326-0.789,0.632-1.527,0.951-2.296
			c-0.621-0.566-1.227-1.118-1.792-1.633c0-0.81,0-1.552,0-2.332c0.568-0.52,1.159-1.062,1.77-1.622
			c-0.326-0.781-0.639-1.534-0.955-2.292c-0.844,0.038-1.625,0.073-2.176,0.098c-0.671-0.642-1.221-1.168-1.82-1.741
			c0-0.687,0-1.488,0-2.349c-0.718-0.297-1.472-0.609-2.237-0.926c-0.571,0.626-1.113,1.218-1.619,1.772c-0.82,0-1.582,0-2.351,0
			C38.166,1.799,37.625,1.21,37.078,0.613L37.078,0.613z M39.883,14.735c-2.217,0-4.078-1.849-4.098-4.072
			c-0.02-2.274,1.806-4.129,4.07-4.134c0.003,0,0.007,0,0.01,0c2.291,0,4.099,1.794,4.106,4.077
			C43.977,12.875,42.136,14.735,39.883,14.735L39.883,14.735z"/>
	</g>
</g>
</svg>
