<?xml version="1.0" encoding="utf-8"?>
<!-- Generator: Adobe Illustrator 17.0.0, SVG Export Plug-In . SVG Version: 6.00 Build 0)  -->
<!DOCTYPE svg PUBLIC "-//W3C//DTD SVG 1.1//EN" "http://www.w3.org/Graphics/SVG/1.1/DTD/svg11.dtd">
<svg version="1.1" id="Layer_1" xmlns="http://www.w3.org/2000/svg" xmlns:xlink="http://www.w3.org/1999/xlink" x="0px" y="0px"
	 width="50px" height="50px" viewBox="0 0 50 50" enableBackground="new 0 0 50 50" xml:space="preserve">
<g>
	<path fill="#FFFFFF" d="M20.74,43.118c1.286-1.34,18.129-18.182,18.129-18.182S21.678,7.688,20.728,6.748
		c-1.25-1.238-1.825-3.871,0.008-5.579c1.552-1.447,3.72-1.666,5.583,0c1.344,1.202,23.767,23.767,23.767,23.767
		S27.594,47.513,26.326,48.704c-2.271,2.131-4.696,1.044-5.734,0C19.553,47.659,18.721,45.224,20.74,43.118z"/>
	<path fill="#FFFFFF" d="M1.18,43.118c1.052-1.094,18.129-18.182,18.129-18.182S2.383,8.023,1.169,6.748s-1.841-3.671,0-5.574
		C2.444-0.145,5.062-0.592,6.76,1.169c1.376,1.427,23.767,23.767,23.767,23.767S7.978,47.53,6.766,48.704
		c-2.104,2.039-4.417,1.24-5.715,0C-0.223,47.487-0.518,44.885,1.18,43.118z"/>
</g>
</svg>
