<?xml version="1.0" encoding="utf-8"?>
<!-- Generator: Adobe Illustrator 17.0.0, SVG Export Plug-In . SVG Version: 6.00 Build 0)  -->
<!DOCTYPE svg PUBLIC "-//W3C//DTD SVG 1.1//EN" "http://www.w3.org/Graphics/SVG/1.1/DTD/svg11.dtd">
<svg version="1.1" id="Layer_1" xmlns="http://www.w3.org/2000/svg" xmlns:xlink="http://www.w3.org/1999/xlink" x="0px" y="0px"
	 width="16px" height="16px" viewBox="16 16 16 16" enableBackground="new 16 16 16 16" xml:space="preserve">
<path fill="#4E5967" d="M23.983,16C19.575,16,16,19.575,16,23.983s3.575,7.983,7.983,7.983c0.736,0,1.331-0.594,1.331-1.331
	c0-0.346-0.133-0.656-0.346-0.896c-0.204-0.231-0.337-0.541-0.337-0.878c0-0.736,0.594-1.331,1.331-1.331h1.57
	c2.448,0,4.435-1.987,4.435-4.435C31.967,19.176,28.392,16,23.983,16z M19.105,23.983c-0.736,0-1.331-0.594-1.331-1.331
	s0.594-1.331,1.331-1.331s1.331,0.594,1.331,1.331S19.841,23.983,19.105,23.983z M21.766,20.435c-0.736,0-1.331-0.594-1.331-1.331
	s0.594-1.331,1.331-1.331s1.331,0.594,1.331,1.331S22.502,20.435,21.766,20.435z M26.201,20.435c-0.736,0-1.331-0.594-1.331-1.331
	s0.594-1.331,1.331-1.331s1.331,0.594,1.331,1.331S26.937,20.435,26.201,20.435z M28.862,23.983c-0.736,0-1.331-0.594-1.331-1.331
	s0.594-1.331,1.331-1.331s1.331,0.594,1.331,1.331S29.599,23.983,28.862,23.983z"/>
<path fill="none" d="M0,0h48v48H0V0z"/>
</svg>
