<?xml version="1.0" encoding="utf-8"?>
<!-- Generator: Adobe Illustrator 17.0.0, SVG Export Plug-In . SVG Version: 6.00 Build 0)  -->
<!DOCTYPE svg PUBLIC "-//W3C//DTD SVG 1.1//EN" "http://www.w3.org/Graphics/SVG/1.1/DTD/svg11.dtd">
<svg version="1.1" id="Layer_1" xmlns="http://www.w3.org/2000/svg" xmlns:xlink="http://www.w3.org/1999/xlink" x="0px" y="0px"
	 width="16px" height="16px" viewBox="0 0 16 16" enable-background="new 0 0 16 16" xml:space="preserve">
<path fill="#FFFFFF" d="M8,0.017C3.592,0.017,0.017,3.592,0.017,8S3.592,15.983,8,15.983c0.736,0,1.331-0.594,1.331-1.331
	c0-0.346-0.133-0.656-0.346-0.896c-0.204-0.231-0.337-0.541-0.337-0.878c0-0.736,0.594-1.331,1.331-1.331h1.57
	c2.448,0,4.435-1.987,4.435-4.435C15.984,3.193,12.409,0.017,8,0.017z M3.122,8C2.386,8,1.791,7.406,1.791,6.669
	s0.594-1.331,1.331-1.331s1.331,0.594,1.331,1.331S3.858,8,3.122,8z M5.783,4.452c-0.736,0-1.331-0.594-1.331-1.331
	S5.046,1.79,5.783,1.79s1.331,0.594,1.331,1.331S6.519,4.452,5.783,4.452z M10.218,4.452c-0.736,0-1.331-0.594-1.331-1.331
	S9.481,1.79,10.218,1.79s1.331,0.594,1.331,1.331S10.954,4.452,10.218,4.452z M12.879,8c-0.736,0-1.331-0.594-1.331-1.331
	s0.594-1.331,1.331-1.331s1.331,0.594,1.331,1.331S13.616,8,12.879,8z"/>
<path fill="none" d="M0,0h48v48H0V0z"/>
</svg>
