<?xml version="1.0" encoding="utf-8"?>
<!-- Generator: Adobe Illustrator 17.0.0, SVG Export Plug-In . SVG Version: 6.00 Build 0)  -->
<!DOCTYPE svg PUBLIC "-//W3C//DTD SVG 1.1//EN" "http://www.w3.org/Graphics/SVG/1.1/DTD/svg11.dtd">
<svg version="1.1" id="Layer_1" xmlns="http://www.w3.org/2000/svg" xmlns:xlink="http://www.w3.org/1999/xlink" x="0px" y="0px"
	 width="50px" height="50px" viewBox="0 0 50 50" enable-background="new 0 0 50 50" xml:space="preserve">
<g>
	<path fill="#FFFFFF" d="M36.088,25.007c3.947-3.947,7.78-7.782,11.615-11.615c3.034-3.032,3.072-8.01,0.08-11.034
		c-3.088-3.121-8.066-3.144-11.17-0.046c-3.492,3.484-6.98,6.973-10.469,10.46c-0.362,0.362-0.724,0.724-1.145,1.145
		c-0.249-0.249-0.43-0.429-0.61-0.61c-3.048-3.051-6.09-6.107-9.147-9.149c-0.948-0.943-1.837-1.988-2.923-2.741
		C8.98-0.902,4.425-0.299,1.939,2.671c-2.745,3.278-2.561,7.783,0.458,10.813c3.528,3.541,7.067,7.071,10.601,10.605
		c0.291,0.291,0.582,0.582,0.917,0.917c-0.409,0.409-0.729,0.729-1.049,1.049c-3.511,3.511-7.028,7.017-10.532,10.536
		c-3.116,3.13-3.11,8.076-0.004,11.171c3.045,3.035,7.994,2.995,11.099-0.101c3.609-3.598,7.209-7.206,10.812-10.81
		c0.243-0.243,0.486-0.486,0.76-0.76c0.31,0.31,0.516,0.516,0.722,0.722c3.65,3.65,7.298,7.302,10.951,10.948
		c3.044,3.038,8.027,2.992,11.098-0.095c2.997-3.012,2.971-8.009-0.057-11.034c-3.281-3.279-6.561-6.56-9.842-9.84
		C37.303,26.222,36.731,25.65,36.088,25.007z"/>
	<path fill="#FFFFFF" d="M36.088,25.007c0.643,0.643,1.215,1.215,1.787,1.787c3.28,3.28,6.56,6.561,9.842,9.84
		c3.027,3.025,3.054,8.023,0.057,11.034c-3.071,3.086-8.054,3.132-11.098,0.095c-3.654-3.646-7.301-7.299-10.951-10.948
		c-0.206-0.206-0.412-0.412-0.722-0.722c-0.274,0.274-0.517,0.517-0.76,0.76c-3.604,3.604-7.203,7.211-10.812,10.81
		c-3.105,3.096-8.053,3.136-11.099,0.101c-3.106-3.095-3.112-8.041,0.004-11.171c3.503-3.519,7.02-7.025,10.532-10.536
		c0.32-0.32,0.64-0.64,1.049-1.049c-0.335-0.335-0.626-0.626-0.917-0.917c-3.534-3.534-7.074-7.064-10.601-10.605
		c-3.019-3.03-3.203-7.535-0.458-10.813C4.425-0.299,8.98-0.902,12.318,1.417c1.086,0.754,1.975,1.798,2.923,2.741
		c3.057,3.042,6.099,6.098,9.147,9.149c0.18,0.18,0.36,0.36,0.61,0.61c0.421-0.421,0.783-0.783,1.145-1.145
		c3.49-3.487,6.977-6.975,10.469-10.46c3.105-3.098,8.082-3.075,11.17,0.046c2.992,3.024,2.954,8.002-0.08,11.034
		C43.868,17.225,40.035,21.06,36.088,25.007z"/>
</g>
</svg>
