<?xml version="1.0" encoding="utf-8"?>
<!-- Generator: Adobe Illustrator 17.0.0, SVG Export Plug-In . SVG Version: 6.00 Build 0)  -->
<!DOCTYPE svg PUBLIC "-//W3C//DTD SVG 1.1//EN" "http://www.w3.org/Graphics/SVG/1.1/DTD/svg11.dtd">
<svg version="1.1" id="Layer_1" xmlns="http://www.w3.org/2000/svg" xmlns:xlink="http://www.w3.org/1999/xlink" x="0px" y="0px"
	 width="50px" height="50px" viewBox="0 0 50 50" enableBackground="new 0 0 50 50" xml:space="preserve">
<path d="M6.267,19.667c-3.434,0-6.244,2.81-6.244,6.244s2.81,6.244,6.244,6.244s6.244-2.81,6.244-6.244S9.701,19.667,6.267,19.667z
	 M43.733,19.667c-3.434,0-6.244,2.81-6.244,6.244s2.81,6.244,6.244,6.244s6.244-2.81,6.244-6.244S47.167,19.667,43.733,19.667z
	 M24.999,19.667c-3.434,0-6.244,2.81-6.244,6.244s2.81,6.244,6.244,6.244s6.244-2.81,6.244-6.244S28.434,19.667,24.999,19.667z"/>
</svg>
