<?xml version="1.0" encoding="utf-8"?>
<!-- Generator: Adobe Illustrator 17.0.0, SVG Export Plug-In . SVG Version: 6.00 Build 0)  -->
<!DOCTYPE svg PUBLIC "-//W3C//DTD SVG 1.1//EN" "http://www.w3.org/Graphics/SVG/1.1/DTD/svg11.dtd">
<svg version="1.1" id="Layer_1" xmlns="http://www.w3.org/2000/svg" xmlns:xlink="http://www.w3.org/1999/xlink" x="0px" y="0px"
	 width="60px" height="60px" viewBox="-5 -5 60 60" enableBackground="new -5 -5 60 60" xml:space="preserve">
<g id="Layer_1_1_">
	<rect x="-5" y="-5" fill="#292E3A" width="60" height="60"/>
	<g>
		<path fill="#FFFFFF" d="M20.703,9.936c0.979,0,1.957,0,2.936,0c0.256,0.051,0.511,0.107,0.769,0.152
			c8.928,1.55,13.469,10.997,8.863,18.47c-0.248,0.402-0.155,0.587,0.144,0.87c1.913,1.81,3.825,3.62,5.701,5.465
			c0.57,0.561,1.02,1.232,1.525,1.853c0,0.429,0,0.859,0,1.288c-0.048,0.081-0.104,0.16-0.142,0.246
			c-0.777,1.765-2.93,2.219-4.362,0.875c-2.183-2.047-4.337-4.124-6.483-6.207c-0.305-0.295-0.5-0.306-0.868-0.094
			c-1.679,0.97-3.502,1.519-5.463,1.69c-5.946,0.52-11.572-3.024-13.376-8.482c-0.262-0.793-0.415-1.619-0.619-2.43
			c0-0.936,0-1.873,0-2.809c0.041-0.107,0.098-0.211,0.118-0.321c0.957-5.158,4.047-8.529,9.259-10.11
			C19.355,10.195,20.036,10.086,20.703,9.936z M13.817,22.241c-0.017,4.422,3.753,8.057,8.367,8.067
			c4.597,0.01,8.413-3.626,8.429-8.032c0.016-4.409-3.762-8.028-8.393-8.042C17.575,14.221,13.834,17.785,13.817,22.241z"/>
	</g>
</g>
</svg>
