<?xml version="1.0" encoding="utf-8"?>
<!-- Generator: Adobe Illustrator 17.0.0, SVG Export Plug-In . SVG Version: 6.00 Build 0)  -->
<!DOCTYPE svg PUBLIC "-//W3C//DTD SVG 1.1//EN" "http://www.w3.org/Graphics/SVG/1.1/DTD/svg11.dtd">
<svg version="1.1" id="Layer_1" xmlns="http://www.w3.org/2000/svg" xmlns:xlink="http://www.w3.org/1999/xlink" x="0px" y="0px"
	 width="50px" height="50px" viewBox="0 0 50 50" enableBackground="new 0 0 50 50" xml:space="preserve">
<g>
	<path fill="#FFFFFF" d="M0,32.019c0.119-0.545,0.221-1.093,0.358-1.633c0.634-2.494,2.006-4.5,4.05-6.049
		c1.382-1.047,2.931-1.719,4.643-2.008c0.207-0.035,0.333-0.076,0.336-0.369c0.031-2.64,0.633-5.141,1.932-7.453
		c1.172-2.085,2.738-3.814,4.697-5.196c1.768-1.247,3.713-2.087,5.818-2.52c1.944-0.4,3.91-0.434,5.876-0.082
		c3.014,0.541,5.639,1.843,7.897,3.912c1.667,1.528,2.943,3.332,3.817,5.403c1.084,2.566,1.431,5.25,1.091,8.018
		c-0.047,0.379-0.102,0.757-0.152,1.122c0.657,0.069,1.283,0.092,1.893,0.206c3.358,0.625,5.753,2.514,7.055,5.66
		c1.597,3.857,0.569,7.999-2.599,10.729c-1.695,1.46-3.699,2.202-5.937,2.21c-3.97,0.014-7.941,0.028-11.91-0.039
		c-1.848-0.031-3.567-0.585-4.973-1.876c-1.318-1.211-1.978-2.719-1.984-4.5c-0.012-3.198-0.004-6.395-0.004-9.593
		c0-0.14,0-0.281,0-0.522c-0.233,0.222-0.395,0.37-0.55,0.525c-0.951,0.95-1.897,1.906-2.855,2.849
		c-0.215,0.212-0.447,0.435-0.714,0.562c-0.709,0.336-1.538,0.092-1.95-0.525c-0.416-0.623-0.315-1.465,0.267-2.047
		c1.909-1.914,3.824-3.821,5.736-5.732c0.132-0.132,0.261-0.267,0.394-0.397c0.813-0.79,1.717-0.795,2.532,0.003
		c0.761,0.745,1.508,1.504,2.261,2.257c1.28,1.28,2.561,2.559,3.84,3.84c0.563,0.564,0.674,1.382,0.279,2.013
		c-0.385,0.615-1.186,0.886-1.898,0.584c-0.283-0.12-0.534-0.346-0.758-0.566c-1.09-1.074-2.165-2.163-3.246-3.246
		c-0.045-0.045-0.101-0.079-0.2-0.155c-0.008,0.184-0.02,0.323-0.02,0.461c-0.001,3.158,0.036,6.316-0.017,9.473
		c-0.026,1.569,0.989,2.841,2.473,3.206c0.819,0.201,1.68,0.316,2.523,0.325c3.464,0.035,6.928,0.024,10.392,0.011
		c2.314-0.009,4.18-0.913,5.497-2.854c1.44-2.122,1.36-5.07-0.184-7.12c-1.33-1.765-3.097-2.623-5.307-2.552
		c-0.559,0.018-1.118,0.054-1.675,0.105c-1.306,0.119-2.06-0.742-1.83-2.033c0.242-1.36,0.536-2.726,0.603-4.099
		c0.118-2.425-0.544-4.682-1.819-6.761c-0.927-1.511-2.118-2.767-3.566-3.771c-1.473-1.021-3.098-1.692-4.871-2.009
		c-2.384-0.427-4.707-0.194-6.939,0.714c-2.47,1.004-4.436,2.641-5.884,4.901c-1.295,2.022-1.877,4.242-1.936,6.617
		c-0.012,0.478,0.034,0.958,0.034,1.437c-0.001,0.936-0.492,1.529-1.409,1.707c-0.796,0.154-1.61,0.237-2.389,0.452
		c-4.049,1.121-6.47,5.487-5.304,9.52c0.706,2.44,2.185,4.228,4.518,5.265c0.706,0.314,1.45,0.504,2.244,0.497
		c2.332-0.019,4.663-0.01,6.995-0.012c0.627-0.001,1.107,0.254,1.398,0.821c0.288,0.562,0.24,1.111-0.111,1.626
		c-0.291,0.426-0.72,0.638-1.227,0.64c-2.598,0.008-5.198,0.063-7.794-0.019c-1.381-0.043-2.674-0.587-3.874-1.277
		c-1.969-1.132-3.45-2.731-4.449-4.775c-0.537-1.099-0.854-2.262-1.029-3.468C0.074,34.322,0.031,34.211,0,34.098
		C0,33.405,0,32.712,0,32.019z"/>
</g>
</svg>
